<?xml version="1.0" encoding="UTF-8"?>
<svg width="240px" height="120px" viewBox="0 0 240 120" version="1.1" xmlns="http://www.w3.org/2000/svg" xmlns:xlink="http://www.w3.org/1999/xlink">
    <!-- Generator: Sketch 61 (89581) - https://sketch.com -->
    <title>distribution bar</title>
    <desc>Created with Sketch.</desc>
    <g id="Gladdesign" stroke="none" stroke-width="1" fill="none" fill-rule="evenodd">
        <g id="sidlayout-Component-landing-page-data" transform="translate(-426.000000, -482.000000)">
            <g id="distribution-bar" transform="translate(426.000000, 482.000000)">
                <rect id="Background" stroke="#F3F3F3" stroke-width="2" fill="#FFFFFF" x="1" y="1" width="238" height="118"></rect>
                <g id="Group-4" transform="translate(28.000000, 62.000000)">
                    <polygon id="Rectangle-Copy-8" fill="#005AA0" points="0 0 51 0 54 4 51 8 0 8"></polygon>
                    <polygon id="Rectangle-Copy-9" fill="#D5D5D5" points="53 0 144 0 144 4 144 8 53 8 56 4"></polygon>
                    <g id="Group-6" transform="translate(0.000000, 16.000000)">
                        <polygon id="Rectangle-Copy-10" fill="#005AA0" points="0 0 4 0 4 2 4 4 0 4"></polygon>
                        <polygon id="Rectangle-Copy-11" fill="#D5D5D5" points="0 8 4 8 4 10 4 12 0 12"></polygon>
                        <polygon id="Rectangle-Copy-12" fill="#AD1015" points="0 16 4 16 4 18 4 20 0 20"></polygon>
                        <polygon id="Rectangle-Copy-10" fill="#D5D5D5" points="8 1 43 1 43 2 43 3 8 3"></polygon>
                        <polygon id="Rectangle-Copy-11" fill="#D5D5D5" points="8 9 43 9 43 10 43 11 8 11"></polygon>
                        <polygon id="Rectangle-Copy-12" fill="#D5D5D5" points="8 17 43 17 43 18 43 19 8 19"></polygon>
                    </g>
                    <polygon id="Rectangle-Copy-9" fill="#AD1015" points="146 0 183 0 183 4 183 8 146 8"></polygon>
                </g>
                <rect id="Rectangle" fill="#DCDDDE" x="28" y="33" width="143" height="2"></rect>
                <rect id="Rectangle-Copy-14" fill="#DCDDDE" x="28" y="21" width="61" height="4"></rect>
                <rect id="Rectangle-Copy-7" fill="#DCDDDE" x="28" y="43" width="143" height="2"></rect>
            </g>
        </g>
    </g>
</svg>