<?xml version="1.0" encoding="UTF-8"?>
<svg width="240px" height="120px" viewBox="0 0 240 120" version="1.1" xmlns="http://www.w3.org/2000/svg" xmlns:xlink="http://www.w3.org/1999/xlink">
    <!-- Generator: Sketch 61 (89581) - https://sketch.com -->
    <title>datepicker</title>
    <desc>Created with Sketch.</desc>
    <g id="Gladdesign" stroke="none" stroke-width="1" fill="none" fill-rule="evenodd">
        <g id="sidlayout-Component-landing-page-forms" transform="translate(-426.000000, -656.000000)">
            <g id="datepicker" transform="translate(426.000000, 656.000000)">
                <rect id="Background" stroke="#F3F3F3" stroke-width="2" fill="#FFFFFF" x="1" y="1" width="238" height="118"></rect>
                <g id="Group-3" transform="translate(71.000000, 22.000000)">
                    <g id="Group-4"></g>
                </g>
                <g id="Group-3-Copy" transform="translate(114.000000, 41.000000)">
                    <g id="Group-4"></g>
                </g>
                <path d="M195,32 L195,33 L199,33 L199,32 L201,32 L201,33 L204,33 L204,42.6923077 C204,43.966811 202.880712,45 201.5,45 L201.5,45 L192.5,45 C191.119288,45 190,43.966811 190,42.6923077 L190,42.6923077 L190,33 L193,33 L193,32 L195,32 Z M202,39 L192,39 L192,42.5555556 C192,42.7464688 192.13542,42.9092673 192.325534,42.9721944 L192.410124,42.9928394 L192.5,43 L201.5,43 C201.776142,43 202,42.8010154 202,42.5555556 L202,42.5555556 L202,39 Z M193,35 L192,35 L192,37 L202,37 L202,35 L201,35 L201,36 L199,36 L199,35 L195,35 L195,36 L193,36 L193,35 Z" id="Combined-Shape" fill="#005AA0"></path>
                <rect id="Rectangle-Copy-2" stroke="#DCDDDE" stroke-width="2" x="112" y="29" width="95" height="19"></rect>
                <rect id="Rectangle-Copy-2" stroke="#DCDDDE" stroke-width="2" x="155" y="48" width="52" height="53"></rect>
                <line x1="160" y1="62" x2="202" y2="62" id="Path-2" stroke="#DCDDDE" stroke-width="2"></line>
                <line x1="160" y1="75" x2="202" y2="75" id="Path-2-Copy" stroke="#DCDDDE" stroke-width="2"></line>
                <line x1="160" y1="87" x2="202" y2="87" id="Path-2-Copy-4" stroke="#DCDDDE" stroke-width="2"></line>
                <line x1="169.083333" y1="95.25" x2="169.083333" y2="53.25" id="Path-2-Copy" stroke="#DCDDDE" stroke-width="2"></line>
                <line x1="181.083333" y1="95.25" x2="181.083333" y2="53.25" id="Path-2-Copy-2" stroke="#DCDDDE" stroke-width="2"></line>
                <line x1="193.083333" y1="95.25" x2="193.083333" y2="53.25" id="Path-2-Copy-4" stroke="#DCDDDE" stroke-width="2"></line>
                <line x1="111" y1="48" x2="208" y2="48" id="Path-2" stroke="#005AA0" stroke-width="2"></line>
                <rect id="Rectangle-Copy-2" stroke="#DCDDDE" stroke-width="2" x="31" y="29" width="63" height="19"></rect>
                <line x1="30" y1="66" x2="95" y2="66" id="Path-2-Copy-5" stroke="#DCDDDE" stroke-width="2"></line>
                <line x1="30" y1="74" x2="95" y2="74" id="Path-2-Copy-6" stroke="#DCDDDE" stroke-width="2"></line>
                <line x1="30" y1="82" x2="95" y2="82" id="Path-2-Copy-7" stroke="#DCDDDE" stroke-width="2"></line>
                <line x1="30" y1="90" x2="56" y2="90" id="Path-2-Copy-8" stroke="#DCDDDE" stroke-width="2"></line>
                <line x1="111" y1="21" x2="168" y2="21" id="Path-2-Copy-3" stroke="#DCDDDE" stroke-width="2"></line>
                <line x1="30" y1="21" x2="68" y2="21" id="Path-2-Copy-3" stroke="#DCDDDE" stroke-width="2"></line>
            </g>
        </g>
    </g>
</svg>