<?xml version="1.0" encoding="UTF-8"?>
<svg width="240px" height="120px" viewBox="0 0 240 120" version="1.1" xmlns="http://www.w3.org/2000/svg" xmlns:xlink="http://www.w3.org/1999/xlink">
    <!-- Generator: Sketch 61 (89581) - https://sketch.com -->
    <title>card</title>
    <desc>Created with Sketch.</desc>
    <g id="Gladdesign" stroke="none" stroke-width="1" fill="none" fill-rule="evenodd">
        <g id="sidlayout-Component-landing-micro-interactions-Copy" transform="translate(-426.000000, -651.000000)">
            <g id="card" transform="translate(426.000000, 651.000000)">
                <rect id="Background" stroke="#F3F3F3" stroke-width="2" fill="#F3F3F3" x="1" y="1" width="238" height="118"></rect>
                <g id="Group" transform="translate(36.000000, 21.000000)">
                    <g id="card2" transform="translate(90.000000, 0.000000)">
                        <polygon id="Rectangle-Copy" fill="#FFFFFF" points="9.61921168e-12 0 78 0 78 83 9.61921168e-12 83"></polygon>
                        <polygon id="Rectangle-Copy-7" fill="#D5D5D5" points="10 62 68 62 68 64 10 64"></polygon>
                        <polygon id="Rectangle-Copy-7" fill="#D5D5D5" points="10 72 57 72 57 74 10 74"></polygon>
                        <polygon id="Rectangle-Copy-8" fill="#005AA0" points="10 50 36 50 36 54 10 54"></polygon>
                        <rect id="Rectangle" fill="#005AA0" x="0" y="40" width="78" height="2"></rect>
                        <g id="Icons/32px/family-32" transform="translate(39.000000, 11.000000)">
                            <g>
                                <rect id="invisible-32" x="0" y="0" width="32" height="32"></rect>
                                <g id="outlines" transform="translate(2.000000, 2.000000)" fill="#005AA0">
                                    <path d="M10.5,0 C12.8638035,0 15.0621617,1.03247927 16.5720319,2.79112027 L15.0545696,4.09392804 C13.9207321,2.77327608 12.2742702,2 10.5,2 C7.1862915,2 4.5,4.6862915 4.5,8 C4.5,11.3137085 7.1862915,14 10.5,14 C13.8137085,14 16.5,11.3137085 16.5,8 C16.5,7.8893562 16.4970159,7.77913943 16.4910744,7.66942563 L11.9183165,7.66942563 C10.149095,7.66942563 8.39004276,6.38399358 7.53114046,4.58955061 L9.33513865,3.72607476 C9.88186619,4.8683134 10.9781499,5.66942563 11.9183165,5.66942563 L18.1996161,5.66942563 L18.3556844,6.48046172 C18.4514267,6.97800336 18.5,7.48616437 18.5,8 C18.5,9.97765156 17.7823952,11.7876975 16.593369,13.1839545 C17.5299294,12.4417936 18.7133715,12 20,12 C23.0375661,12 25.5,14.4624339 25.5,17.5 C25.5,18.321262 25.3199983,19.1004824 24.997295,19.8003611 C26.8184946,20.8509606 28,22.8123 28,25 L28,28 L26,28 L26,25 C26,23.4767397 25.1406543,22.1178076 23.8339887,21.4436591 C22.8431999,22.4068088 21.4908736,23 20,23 C18.5091264,23 17.1568001,22.4068088 16.1661657,21.4435709 C14.8594664,22.1175492 14,23.4766333 14,25 L14,28 L12,28 L12,25 C12,22.8125469 13.1812464,20.8513035 15.0026988,19.800696 C14.6801745,19.1012302 14.5,18.3216561 14.5,17.5 C14.5,16.2133715 14.9417936,15.0299294 15.6819563,14.0930983 C14.2876975,15.2823952 12.4776516,16 10.5,16 C8.47517678,16 6.62605007,15.2477538 5.21684303,14.0074844 L5.42893545,13.9033351 C3.08376913,15.016903 2,16.4188954 2,18.174506 L2,28 L3.34399175e-13,28 L3.34399175e-13,18.174506 C3.34399175e-13,15.7792598 1.33182661,13.8582162 3.85839041,12.46169 C3.00113558,11.1882827 2.5,9.65266458 2.5,8 C2.5,3.581722 6.081722,0 10.5,0 Z M20,14 C18.0670034,14 16.5,15.5670034 16.5,17.5 C16.5,19.4329966 18.0670034,21 20,21 C21.9329966,21 23.5,19.4329966 23.5,17.5 C23.5,15.5670034 21.9329966,14 20,14 Z" id="Combined-Shape"></path>
                                </g>
                            </g>
                        </g>
                    </g>
                    <g id="card2">
                        <polygon id="Rectangle-Copy" fill="#FFFFFF" points="9.61921168e-12 0 78 0 78 83 9.61921168e-12 83"></polygon>
                        <polygon id="Rectangle-Copy-7" fill="#D5D5D5" points="10 62 68 62 68 64 10 64"></polygon>
                        <polygon id="Rectangle-Copy-7" fill="#D5D5D5" points="10 72 57 72 57 74 10 74"></polygon>
                        <polygon id="Rectangle-Copy-8" fill="#005AA0" points="10 50 36 50 36 54 10 54"></polygon>
                        <rect id="Rectangle" fill="#005AA0" x="0" y="40" width="78" height="2"></rect>
                        <g id="Icons/32px/shoe-32" transform="translate(23.000000, 5.000000)">
                            <g>
                                <rect id="invisible-32" x="0" y="0" width="32" height="32"></rect>
                                <g id="outlines" transform="translate(2.000000, 6.000000)" fill="#005AA0">
                                    <path d="M12.2363702,1.13686838e-13 C15.2536016,1.13686838e-13 16.0557283,0.42228684 16.095856,2.76056893 L16.0974684,2.95438753 L16.0974684,6.25847053 L16.103982,6.50156395 C16.1450775,7.17577691 16.3982921,7.36594099 17.3530386,7.38409063 L17.5187426,7.38557635 C18.0081159,7.38557635 18.6096689,7.38058795 19.2980115,7.37142416 L20.57,7.35 L20.6739038,7.3383291 C20.812844,7.32470278 20.94202,7.31764975 21.0802896,7.31452618 L21.2968716,7.31245746 L22.2988663,7.31245746 L22.298,7.315 L22.4986936,7.31195892 C22.761607,7.30354822 23.1022034,7.32343538 23.4959596,7.39316385 C24.0953609,7.49930906 24.6905916,7.70161471 25.2525462,8.02583161 C26.9127528,8.98367955 27.923232,10.7778228 27.9958049,13.4600631 L28,13.7734966 L28,20 L2,19.999 L2,20 L0,20 L0.00210872133,6.05307353 C0.174461836,3.40331168 1.78289718,2.04368173 4.43061025,2.30639564 C4.77494627,2.34056168 5.01885991,2.51862874 5.18058874,2.74844466 C5.25499803,2.8541799 5.30239154,2.95750918 5.33908333,3.0682224 C5.37876949,3.18797084 5.40422311,3.31455381 5.42444046,3.46433854 C5.44168202,3.59207646 5.45540545,3.74227961 5.46638304,3.91723519 L5.4849059,4.30082725 C5.50080884,4.73469916 5.50600086,5.15544825 5.50722201,5.93545597 L5.50753479,6.39878188 C5.50753479,7.20233994 5.61183505,7.36117073 6.70056047,7.38271743 L7.69287991,7.38944669 C8.30778461,7.38845069 8.35954072,7.3301238 8.35803369,6.814592 L8.35473362,6.39878188 L8.35473362,2.95438753 C8.35473362,1.00902989 9.59045187,1.13686838e-13 12.2363702,1.13686838e-13 Z M26,16 L2,15.999 L2,17.999 L26,18 L26,16 Z M13.3469643,1.99171277 L11.8589094,2.00462294 C10.6908824,2.03605003 10.4034204,2.23372506 10.3608077,2.77989835 L10.3547336,2.95438753 L10.3547336,6.39878188 C10.3547336,8.66351574 9.54804001,9.38557635 7.03917224,9.38557635 C4.59241307,9.38557635 3.50753479,8.46029937 3.50753479,6.39878188 L3.50415521,5.24068102 C3.50157219,4.94064709 3.49720272,4.70766426 3.49005689,4.48488667 L3.482,4.283 L3.42511123,4.28835866 C2.53205605,4.38502593 2.119476,4.89909872 2.01410912,5.94791722 L2,6.11798112 L2,13.999 L16.655,13.999 L16.6550007,12.241349 C16.6550007,11.0848838 16.8888067,10.1317737 17.316926,9.38053396 L17.5187426,9.38557635 C15.2956726,9.38557635 14.1760351,8.36283452 14.1014621,6.46513662 L14.0974684,6.25847053 L14.0974684,2.95438753 C14.0974684,2.08949419 14.2644351,1.99175389 13.3469643,1.99171277 Z M22.7189827,9.31100478 L20.6836539,9.34939778 C20.4286386,9.38544359 20.1903099,9.45156742 19.9464602,9.56339925 C19.1773109,9.91613867 18.7064033,10.6322104 18.6589646,12.0062072 L18.6550007,12.241349 L18.655,13.999 L26,13.999 L26,13.7734966 C26,11.6109471 25.3380002,10.3841298 24.2530727,9.75818632 C23.7155679,9.44807559 23.1528111,9.32453886 22.7189827,9.31100478 Z" id="Combined-Shape"></path>
                                </g>
                            </g>
                        </g>
                    </g>
                </g>
            </g>
        </g>
    </g>
</svg>