<svg width="60" height="98" xmlns="http://www.w3.org/2000/svg"><g stroke="#005AA0" stroke-width="2" fill="none" fill-rule="evenodd"><path d="M24.378 46.802h8.002M19.367 69.64c.533.45.87 1.125.87 1.882 0 1.2-.854 2.198-1.987 2.43M42.19 74.005a2.485 2.485 0 01-2.482-2.483c0-.915.495-1.71 1.23-2.145M34.75 79.15a3.367 3.367 0 116.735 0M26.605 79.15a3.367 3.367 0 116.735 0M18.46 79.15a3.367 3.367 0 116.735 0M43.72 22.015a14.65 14.65 0 00.9-3.068c.547-3 .15-5.94-.96-8.445"/><path d="M47.425 22.48a4.96 4.96 0 01-4.328 1.485l-.337-.068a13.626 13.626 0 01-13.845 5.963c-7.395-1.343-12.3-8.408-10.965-15.78.18-.96.45-1.883.803-2.745"/><path d="M47.92 16.27c0 2.1-.6 4.455-1.117 5.88 6.277 3.322 11.182.547 11.182.547-2.752-4.395-.457-7.065.682-11.61 1.358-5.392-1.56-8.527-5.49-9.697C46.683-.553 42.94 5.627 42.94 5.627c-2.355-2.175-5.385-3.735-8.835-4.35-7.83-1.387-15.315 2.558-18.322 9.128 0 0 10.845 2.182 24.307 9.022 0 0 1.5-4.822.202-9.502M30.175 22.997a2.584 2.584 0 01-3.375 1.418 2.601 2.601 0 01-1.418-3.383M40.225 67.757c1.05 3.945 2.625 9.03 3.038 11.978H17.118c1.23-8.828 7.035-24.413 7.26-32.933V34.705h-.81S18.46 57.22 1 51.137M17.785 97h6.593V79.735M35.8 39.647v-4.942h.968c2.902 1.897 10.815 13.71 3.187 23.722M29.207 97H35.8V79.735"/><path d="M38.56 42.775l-8.198 11.407L44.98 64.69l8.198-11.408L38.56 42.775l-3.848.787-8.197 11.408 14.61 10.507M36.528 71.522a2.48 2.48 0 00-2.483-2.482 2.48 2.48 0 00-2.483 2.482 2.485 2.485 0 002.483 2.483 2.485 2.485 0 002.483-2.483zM28.383 71.522A2.48 2.48 0 0025.9 69.04a2.48 2.48 0 00-2.482 2.482 2.485 2.485 0 002.482 2.483 2.485 2.485 0 002.483-2.483z"/></g></svg>