<?xml version="1.0" encoding="UTF-8"?>
<svg width="240px" height="120px" viewBox="0 0 240 120" version="1.1" xmlns="http://www.w3.org/2000/svg" xmlns:xlink="http://www.w3.org/1999/xlink">
    <!-- Generator: Sketch 64 (93537) - https://sketch.com -->
    <title>component/nobg</title>
    <desc>Created with Sketch.</desc>
    <g id="component/nobg" stroke="none" stroke-width="1" fill="none" fill-rule="evenodd">
        <g id="Icons/70px/family-70" transform="translate(85.000000, 34.000000)">
            <g>
                <rect id="invisible-70" x="0" y="0" width="70" height="70"></rect>
                <g id="outlines" transform="translate(7.000000, 9.000000)" fill="#222222">
                    <path d="M40.2392534,23 C45.892479,23 50.4785068,27.5499984 50.4785068,33.1666667 C50.4785068,35.0505908 49.9625588,36.81451 49.0634487,38.3269778 C53.3142782,40.0226964 55.9739064,43.5327547 55.9739064,48 L55.9739064,55 L53.9739064,55 L53.9739064,48 C53.9739064,44.2343274 51.6485359,41.3313402 47.8231735,39.9964144 C45.9497446,42.0467634 43.2453809,43.3333333 40.2392534,43.3333333 C37.3521783,43.3333333 34.7434386,42.1466502 32.881722,40.237243 C29.2787598,41.704336 27,44.5375458 27,48 L27,55 L25,55 L25,48 C25,43.8274391 27.5916421,40.4345493 31.5932178,38.6141267 C30.5842822,37.0403742 30,35.1714699 30,33.1666667 C30,27.5499984 34.5860278,23 40.2392534,23 Z M21.3721719,-1 C25.913247,-1 30.1352375,0.967318674 33.0374525,4.32115378 L31.5250833,5.62987056 C28.9993237,2.71107186 25.3272551,1 21.3721719,1 C13.9851674,1 8,6.93814588 8,14.2592593 C8,21.5803726 13.9851674,27.5185185 21.3721719,27.5185185 C28.7591765,27.5185185 34.7443439,21.5803726 34.7443439,14.2592593 C34.7443439,13.6834053 34.7073822,13.1124967 34.6342232,12.54883 L24.2842131,12.54883 C21.0904282,12.54883 17.8277908,10.1833801 16.227896,6.86709466 L18.0292269,5.99806814 C19.3153254,8.66391194 21.9151708,10.54883 24.2842131,10.54883 L36.3097106,10.54883 L36.466735,11.3584238 C36.6508894,12.3078957 36.7443439,13.2779113 36.7443439,14.2592593 C36.7443439,22.6884887 29.8602302,29.5185185 21.3721719,29.5185185 C16.6781621,29.5185185 12.4746766,27.4297328 9.65472243,24.1368237 C3.81942174,25.8607247 1,29.4264534 1,35 L1,55 L-1,55 L-1,35 C-1,28.7369922 2.18944707,24.4986331 8.39221591,22.4358029 C6.87726484,20.0735656 6,17.268308 6,14.2592593 C6,5.83002977 12.8841137,-1 21.3721719,-1 Z M40.2392534,25 C35.6870815,25 32,28.6581145 32,33.1666667 C32,37.6752188 35.6870815,41.3333333 40.2392534,41.3333333 C44.7914253,41.3333333 48.4785068,37.6752188 48.4785068,33.1666667 C48.4785068,28.6581145 44.7914253,25 40.2392534,25 Z" id="Combined-Shape"></path>
                </g>
            </g>
        </g>
    </g>
</svg>