<?xml version="1.0" encoding="UTF-8"?>
<svg width="75px" height="111px" viewBox="0 0 75 111" version="1.1" xmlns="http://www.w3.org/2000/svg" xmlns:xlink="http://www.w3.org/1999/xlink">
    <title>designer_color</title>
    <g id="-designsssssssss" stroke="none" stroke-width="1" fill="none" fill-rule="evenodd">
        <g id="designer_color" transform="translate(1.000000, 1.000000)" stroke="#000000" stroke-width="2">
            <path d="M40.4925,108.1875 L37.6725,108.1875 L37.6725,94.23 L45.69,91.71 C45.69,91.71 46.2825,100.02 47.025,101.955 C47.475,103.125 48.96,104.235 50.0625,104.9325 C50.85,105.435 51.33,106.29 51.33,107.2275 L51.33,108.1875 L43.89,108.1875 L41.325,105.5925" id="Stroke-995"></path>
            <path d="M45.69,91.71 C45.69,91.71 46.2825,100.02 47.025,101.955 C47.475,103.125 48.96,104.235 50.0625,104.9325 C50.85,105.435 51.33,106.29 51.33,107.2275 L51.33,108.1875 L43.89,108.1875" id="Stroke-996"></path>
            <path d="M48.06,93.0075 L52.185,91.71 C52.185,91.71 52.7775,100.02 53.52,101.955 C53.97,103.125 55.455,104.235 56.5575,104.9325 C57.345,105.435 57.825,106.29 57.825,107.2275 L57.825,108.1875 L53.5125,108.1875" id="Stroke-997"></path>
            <path d="M2.38475906e-12,41.0775 L7.905,41.3025 C7.905,41.3025 11.2875,43.7475 13.9575,44.1975 C16.6275,44.64 24.6075,44.64 32.4075,41.19" id="Stroke-998"></path>
            <path d="M5.3475,41.6325 C5.3475,41.6325 3.45,44.7525 9.0225,45.8625" id="Stroke-999"></path>
            <path d="M39.09,79.1625 C38.64,77.6025 37.755,73.3725 37.755,73.3725" id="Stroke-1000"></path>
            <line x1="43.4325" y1="78.1575" x2="42.6525" y2="72.5925" id="Stroke-1001"></line>
            <path d="M61.845,48.105 C61.8675,47.205 58.725,42.3825 54.585,40.5075" id="Stroke-1002"></path>
            <path d="M64.3125,66.0825 L58.9125,69.8325 C57.915,70.5225 56.5875,70.395 55.7475,69.585" id="Stroke-1003"></path>
            <path d="M57.2025,51.3225 L64.5225,46.245 L72.2025,57.315 C73.05,58.545 72.75,60.225 71.52,61.08 L68.655,63.0675 C67.4325,63.915 65.745,63.615 64.8975,62.385 L64.4925,61.8075 L55.815,67.83" id="Stroke-1005"></path>
            <path d="M44.8425,52.215 C36.375,49.245 32.6625,41.52 32.37,39.2925 L36.0825,36.4725 C37.2675,37.9575 40.83,41.0775 47.2125,41.97 C47.2125,41.97 45.8775,54.4425 41.7225,60.2325 L45.7275,64.2375 C45.7275,64.2375 54.045,61.2675 56.715,53.25 C59.3925,45.2325 53.3025,38.85 53.3025,38.85" id="Stroke-1007"></path>
            <path d="M56.2425,54.495 C56.2425,60.585 55.38,76.86 55.38,76.86 C43.95,78.195 35.7825,79.53 35.7825,79.53 C35.7825,79.53 33.945,75.6525 32.55,66.5625 C31.98,62.8725 29.2575,59.895 25.6425,58.9875 C22.0425,58.095 17.5875,56.4375 14.4,53.4 L13.9575,44.1975" id="Stroke-1008"></path>
            <path d="M64.2075,19.9725 C65.475,21.24 66.255,22.995 66.255,24.93 C66.255,28.8075 63.12,31.9425 59.2425,31.9425 C58.9725,31.9425 58.695,31.9275 58.4325,31.8975" id="Stroke-1009"></path>
            <path d="M35.4225,32.2125 C38.0625,35.5125 42.1275,37.6275 46.68,37.6275 C53.9925,37.6275 60.03,32.1825 60.9675,25.1175" id="Stroke-1010"></path>
            <path d="M34.5975,26.9025 C35.0325,27.0225 35.49,27.0825 35.97,27.0825 C38.85,27.0825 41.1825,24.75 41.1825,21.87 C41.1825,20.97 40.9575,20.13 40.56,19.3875 L40.62,19.3725 C41.5875,21.0375 43.38,22.1475 45.4425,22.1475 C48.525,22.1475 51.0225,19.65 51.0225,16.5675 C51.0225,15.225 50.5425,13.9875 49.7475,13.0275" id="Stroke-1011"></path>
            <path d="M53.0475,20.22 C53.0475,23.3025 55.5525,25.8 58.635,25.8 C61.7175,25.8 64.215,23.3025 64.215,20.22 C64.215,19.3725 64.02,18.5625 63.675,17.8425 C64.6575,16.755 65.2575,15.315 65.2575,13.7325 C65.2575,10.3275 62.4975,7.575 59.0925,7.575 C58.7325,7.575 58.38,7.6125 58.035,7.6725 C58.0725,7.395 58.1025,7.1175 58.1025,6.8325 C58.1025,3.6225 55.5,1.0125 52.2825,1.0125 C50.13,1.0125 48.255,2.1825 47.25,3.9225 C46.0275,1.59 43.59,-2.04902761e-12 40.77,-2.04902761e-12 C36.7275,-2.04902761e-12 33.45,3.27 33.45,7.3125 C33.45,7.65 33.48,7.9725 33.525,8.295 C33.33,8.28 33.135,8.265 32.94,8.265 C28.9425,8.265 25.7025,11.505 25.7025,15.51 C25.7025,18.75 27.84,21.5025 30.78,22.4175" id="Stroke-1012"></path>
            <path d="M38.7525,26.355 C38.7525,30.2025 35.6325,33.315 31.7925,33.315 C27.9525,33.315 24.8325,30.2025 24.8325,26.355 C24.8325,23.9925 26.0175,21.9 27.8175,20.6475" id="Stroke-1013"></path>
            <path d="M51.9675,31.3875 C51.9675,30.1425 50.955,29.1225 49.7025,29.1225 C48.45,29.1225 47.4375,30.1425 47.4375,31.3875 C47.4375,32.64 48.45,33.6525 49.7025,33.6525 C50.955,33.6525 51.9675,32.64 51.9675,31.3875 Z" id="Stroke-1014"></path>
            <path d="M50.2275,77.49 C50.55,80.49 50.4675,85.0125 49.5675,92.535" id="Stroke-1015"></path>
            <path d="M41.4075,78.6825 C41.7225,81.6825 41.475,85.68 40.575,93.2025" id="Stroke-1016"></path>
        </g>
    </g>
</svg>