<?xml version="1.0" encoding="UTF-8"?>
<svg width="2051px" height="824px" viewBox="0 0 2051 824" version="1.1" xmlns="http://www.w3.org/2000/svg" xmlns:xlink="http://www.w3.org/1999/xlink">
    <title>Designprocess</title>
    <defs>
        <circle id="path-1" cx="116" cy="116" r="116"></circle>
        <filter x="-0.9%" y="-0.9%" width="101.7%" height="101.7%" filterUnits="objectBoundingBox" id="filter-2">
            <feMorphology radius="1" operator="dilate" in="SourceAlpha" result="shadowSpreadOuter1"></feMorphology>
            <feOffset dx="0" dy="0" in="shadowSpreadOuter1" result="shadowOffsetOuter1"></feOffset>
            <feMorphology radius="5.8" operator="erode" in="SourceAlpha" result="shadowInner"></feMorphology>
            <feOffset dx="0" dy="0" in="shadowInner" result="shadowInner"></feOffset>
            <feComposite in="shadowOffsetOuter1" in2="shadowInner" operator="out" result="shadowOffsetOuter1"></feComposite>
            <feColorMatrix values="0 0 0 0 0.952941176   0 0 0 0 0.952941176   0 0 0 0 0.952941176  0 0 0 1 0" type="matrix" in="shadowOffsetOuter1"></feColorMatrix>
        </filter>
        <circle id="path-3" cx="116" cy="116" r="116"></circle>
        <filter x="-0.9%" y="-0.9%" width="101.7%" height="101.7%" filterUnits="objectBoundingBox" id="filter-4">
            <feMorphology radius="1" operator="dilate" in="SourceAlpha" result="shadowSpreadOuter1"></feMorphology>
            <feOffset dx="0" dy="0" in="shadowSpreadOuter1" result="shadowOffsetOuter1"></feOffset>
            <feMorphology radius="5.8" operator="erode" in="SourceAlpha" result="shadowInner"></feMorphology>
            <feOffset dx="0" dy="0" in="shadowInner" result="shadowInner"></feOffset>
            <feComposite in="shadowOffsetOuter1" in2="shadowInner" operator="out" result="shadowOffsetOuter1"></feComposite>
            <feColorMatrix values="0 0 0 0 0.952941176   0 0 0 0 0.952941176   0 0 0 0 0.952941176  0 0 0 1 0" type="matrix" in="shadowOffsetOuter1"></feColorMatrix>
        </filter>
        <circle id="path-5" cx="116" cy="116" r="116"></circle>
        <filter x="-0.9%" y="-0.9%" width="101.7%" height="101.7%" filterUnits="objectBoundingBox" id="filter-6">
            <feMorphology radius="1" operator="dilate" in="SourceAlpha" result="shadowSpreadOuter1"></feMorphology>
            <feOffset dx="0" dy="0" in="shadowSpreadOuter1" result="shadowOffsetOuter1"></feOffset>
            <feMorphology radius="5.8" operator="erode" in="SourceAlpha" result="shadowInner"></feMorphology>
            <feOffset dx="0" dy="0" in="shadowInner" result="shadowInner"></feOffset>
            <feComposite in="shadowOffsetOuter1" in2="shadowInner" operator="out" result="shadowOffsetOuter1"></feComposite>
            <feColorMatrix values="0 0 0 0 0.952941176   0 0 0 0 0.952941176   0 0 0 0 0.952941176  0 0 0 1 0" type="matrix" in="shadowOffsetOuter1"></feColorMatrix>
        </filter>
        <circle id="path-7" cx="116" cy="116" r="116"></circle>
        <filter x="-0.9%" y="-0.9%" width="101.7%" height="101.7%" filterUnits="objectBoundingBox" id="filter-8">
            <feMorphology radius="1" operator="dilate" in="SourceAlpha" result="shadowSpreadOuter1"></feMorphology>
            <feOffset dx="0" dy="0" in="shadowSpreadOuter1" result="shadowOffsetOuter1"></feOffset>
            <feMorphology radius="5.8" operator="erode" in="SourceAlpha" result="shadowInner"></feMorphology>
            <feOffset dx="0" dy="0" in="shadowInner" result="shadowInner"></feOffset>
            <feComposite in="shadowOffsetOuter1" in2="shadowInner" operator="out" result="shadowOffsetOuter1"></feComposite>
            <feColorMatrix values="0 0 0 0 0.952941176   0 0 0 0 0.952941176   0 0 0 0 0.952941176  0 0 0 1 0" type="matrix" in="shadowOffsetOuter1"></feColorMatrix>
        </filter>
        <circle id="path-9" cx="116" cy="116" r="116"></circle>
        <filter x="-0.9%" y="-0.9%" width="101.7%" height="101.7%" filterUnits="objectBoundingBox" id="filter-10">
            <feMorphology radius="1" operator="dilate" in="SourceAlpha" result="shadowSpreadOuter1"></feMorphology>
            <feOffset dx="0" dy="0" in="shadowSpreadOuter1" result="shadowOffsetOuter1"></feOffset>
            <feMorphology radius="5.8" operator="erode" in="SourceAlpha" result="shadowInner"></feMorphology>
            <feOffset dx="0" dy="0" in="shadowInner" result="shadowInner"></feOffset>
            <feComposite in="shadowOffsetOuter1" in2="shadowInner" operator="out" result="shadowOffsetOuter1"></feComposite>
            <feColorMatrix values="0 0 0 0 0.952941176   0 0 0 0 0.952941176   0 0 0 0 0.952941176  0 0 0 1 0" type="matrix" in="shadowOffsetOuter1"></feColorMatrix>
        </filter>
    </defs>
    <g id="Designprocess" stroke="none" stroke-width="1" fill="none" fill-rule="evenodd">
        <rect fill="#FAFAFA" x="0" y="0" width="2051" height="824"></rect>
        <rect id="Rectangle" fill="#EFF4F9" x="27" y="20" width="386" height="778"></rect>
        <rect id="Rectangle-Copy" fill="#EFF4F9" x="430" y="20" width="386" height="778"></rect>
        <rect id="Rectangle-Copy-2" fill="#EFF4F9" x="833" y="20" width="386" height="778"></rect>
        <rect id="Rectangle-Copy-3" fill="#EFF4F9" x="1236" y="20" width="386" height="778"></rect>
        <rect id="Rectangle-Copy-4" fill="#EFF4F9" x="1641" y="20" width="386" height="778"></rect>
        <g id="Boll-Copy-2" transform="translate(507.000000, 137.000000)">
            <g id="Oval">
                <use fill="black" fill-opacity="1" filter="url(#filter-2)" xlink:href="#path-1"></use>
                <circle stroke="#005AA0" stroke-width="4.8" stroke-linejoin="square" cx="116" cy="116" r="113.6"></circle>
            </g>
            <text id="Name" font-family="IntroCond-Bold, Intro Cond" font-size="30" font-style="condensed" font-weight="bold" line-spacing="31.2" fill="#00427A">
                <tspan x="73.1405202" y="93.6051445">Design</tspan>
            </text>
        </g>
        <g id="Boll-Copy-3" transform="translate(910.000000, 137.000000)">
            <g id="Oval">
                <use fill="black" fill-opacity="1" filter="url(#filter-4)" xlink:href="#path-3"></use>
                <circle stroke="#005AA0" stroke-width="4.8" stroke-linejoin="square" cx="116" cy="116" r="113.6"></circle>
            </g>
            <text id="Name" font-family="IntroCond-Bold, Intro Cond" font-size="30" font-style="condensed" font-weight="bold" line-spacing="31.2" fill="#00427A">
                <tspan x="28.6955202" y="93.6051445">Användnings-</tspan>
                <tspan x="90.1055202" y="124.805145">test</tspan>
            </text>
        </g>
        <g id="Boll-Copy-4" transform="translate(1313.000000, 137.000000)">
            <g id="Oval">
                <use fill="black" fill-opacity="1" filter="url(#filter-6)" xlink:href="#path-5"></use>
                <circle stroke="#005AA0" stroke-width="4.8" stroke-linejoin="square" cx="116" cy="116" r="113.6"></circle>
            </g>
            <text id="Name" font-family="IntroCond-Bold, Intro Cond" font-size="30" font-style="condensed" font-weight="bold" line-spacing="31.2" fill="#00427A">
                <tspan x="27.0605202" y="93.6051445">Implementera</tspan>
            </text>
        </g>
        <g id="Boll-Copy-5" transform="translate(1718.000000, 137.000000)">
            <g id="Oval">
                <use fill="black" fill-opacity="1" filter="url(#filter-8)" xlink:href="#path-7"></use>
                <circle stroke="#005AA0" stroke-width="4.8" stroke-linejoin="square" cx="116" cy="116" r="113.6"></circle>
            </g>
            <text id="Name" font-family="IntroCond-Bold, Intro Cond" font-size="30" font-style="condensed" font-weight="bold" line-spacing="31.2" fill="#00427A">
                <tspan x="59.8355202" y="93.6051445">Följa upp</tspan>
            </text>
        </g>
        <path id="Path-Copy-2" d="M819.97731,445.945443 C820.467337,445.956389 820.956803,445.965631 821.451587,445.973275 L823.207869,445.993498 L823.207869,445.993498 L824.963897,445.999995 L824.96431,447.999995 C823.783325,448.000239 822.602072,447.991257 821.420719,447.973037 L820.674894,447.960241 L820.674894,447.960241 L819.932647,447.944945 L819.97731,445.945443 Z M834.931219,445.776718 L835.020405,447.774728 C833.906228,447.824462 832.791192,447.865977 831.675467,447.899256 L830.001381,447.942997 L829.956531,445.9435 C831.616307,445.906271 833.274724,445.85066 834.931219,445.776718 Z M810.039342,445.490412 C811.14132,445.566869 812.244837,445.634722 813.349712,445.693955 L815.008018,445.77634 L814.916609,447.774249 C813.799972,447.723161 812.684601,447.663363 811.570681,447.594872 L809.900911,447.485616 L810.039342,445.490412 Z M844.874213,445.110681 L845.052419,447.102726 C843.9418,447.202081 842.829669,447.293228 841.7162,447.376144 L840.045013,447.494344 L839.911326,445.498817 C841.568624,445.38779 843.223113,445.258387 844.874213,445.110681 Z M800.118256,444.564509 C801.215462,444.693452 802.314932,444.813754 803.416477,444.925393 L805.070328,445.086351 L804.884523,447.077701 C803.77036,446.973743 802.658181,446.861026 801.548176,446.739572 L799.884823,446.550839 L800.118256,444.564509 Z M854.785977,443.998563 L855.053865,445.98054 C853.949282,446.129838 852.842505,446.270941 851.733713,446.403822 L850.069034,446.596972 L849.845992,444.609448 C851.497175,444.424151 853.144036,444.220491 854.785977,443.998563 Z M790.26107,443.163175 C791.350225,443.345251 792.442389,443.518657 793.537373,443.683366 L795.181941,443.923903 L794.900545,445.904008 C793.79203,445.746475 792.686246,445.580142 791.583383,445.405036 L789.931303,445.135801 L790.26107,443.163175 Z M864.624235,442.439349 L864.982595,444.406981 C863.886449,444.60662 862.787397,444.798078 861.685623,444.98132 L860.030943,445.250017 L859.717917,443.274666 C861.359464,443.014536 862.995108,442.736058 864.624235,442.439349 Z M780.502592,441.281928 C781.580007,441.517761 782.661199,441.744912 783.745978,441.963345 L785.375813,442.284452 L784.997397,444.248326 C783.898125,444.036509 782.802352,443.815862 781.710271,443.586422 L780.074942,443.235672 L780.502592,441.281928 Z M874.378535,440.426817 L874.828604,442.375518 C873.743505,442.626131 872.654756,442.868578 871.562543,443.102818 L869.921649,443.448017 L869.51757,441.489262 C871.145664,441.153397 872.766193,440.799201 874.378535,440.426817 Z M770.828226,438.902844 C771.892042,439.193912 772.960444,439.476267 774.033242,439.749864 L775.64571,440.153687 L775.168206,442.095848 C774.079863,441.828265 772.99583,441.551804 771.916302,441.266507 L770.300411,440.83194 L770.828226,438.902844 Z M884.035265,437.951167 L884.578735,439.875912 C883.506839,440.178572 882.430505,440.473073 881.349921,440.759365 L879.725882,441.182641 L879.229264,439.24528 C880.840797,438.832184 882.443009,438.400756 884.035265,437.951167 Z M761.296857,436.020632 C762.342837,436.367939 763.394239,436.706517 764.45087,437.036315 L766.039716,437.524419 L765.460952,439.438846 C764.387672,439.114376 763.319543,438.780991 762.256758,438.438744 L760.666612,437.918734 L761.296857,436.020632 Z M893.5256,435.016416 L894.164092,436.91176 C893.109165,437.267138 892.048977,437.614378 890.98372,437.953421 L889.382056,438.455832 L888.791413,436.545036 C890.380844,436.053729 891.95912,435.544123 893.5256,435.016416 Z M751.967109,432.633973 C752.991018,433.038479 754.021207,433.434253 755.057485,433.821238 L756.616446,434.395114 L755.934309,436.275191 C754.880238,435.892749 753.832184,435.501369 752.790341,435.101113 L751.232256,434.494078 L751.967109,432.633973 Z M902.852028,431.605196 L903.587799,433.464938 C902.553035,433.874323 901.512141,434.27559 900.465309,434.668673 L898.890634,435.25215 L898.20388,433.373754 C899.766574,432.802423 901.316171,432.212828 902.852028,431.605196 Z M742.819492,428.709618 C743.817821,429.17323 744.823333,429.628102 745.83584,430.074167 L747.359824,430.73665 L746.57148,432.574724 C745.539969,432.132312 744.51539,431.680933 743.497935,431.220653 L741.977117,430.523565 L742.819492,428.709618 Z M911.990656,427.701785 L912.826348,429.51882 C911.815897,429.983548 910.7984,430.440188 909.774052,430.888664 L908.232414,431.555247 L907.447029,429.715908 C908.976927,429.062652 910.491684,428.391193 911.990656,427.701785 Z M733.929955,424.246934 C734.896833,424.770515 735.871809,425.285377 736.8547,425.791444 L738.334951,426.543941 L737.43782,428.331441 C736.434718,427.827992 735.439484,427.315574 734.452302,426.794261 L732.977592,426.005629 L733.929955,424.246934 Z M920.92111,423.282338 L921.859787,425.048374 C920.876873,425.57081 919.885924,426.085174 918.887133,426.591382 L917.383089,427.344569 L916.496164,425.551983 C917.988708,424.81351 919.463905,424.056866 920.92111,423.282338 Z M725.334554,419.227749 C726.26481,419.812719 727.204107,420.389003 728.152269,420.956517 L729.581139,421.801202 L728.572742,423.528378 C727.60317,422.962302 726.642431,422.387266 725.690705,421.80335 L724.269899,420.920826 L725.334554,419.227749 Z M929.571012,418.344712 L930.615487,420.050313 C929.666047,420.63173 928.707541,421.205116 927.740157,421.77038 L926.282449,422.612172 L925.291134,420.875136 C926.737624,420.049634 928.164462,419.206054 929.571012,418.344712 Z M717.120272,413.664438 C718.008055,414.31162 718.905834,414.950166 719.813439,415.579989 L721.182193,416.51817 L720.060964,418.174324 C719.13081,417.544602 718.210472,416.90595 717.300125,416.258456 L715.942118,415.280592 L717.120272,413.664438 Z M937.876299,412.885344 L939.029018,414.519736 C938.118987,415.161571 937.198807,415.795434 936.268666,416.421225 L934.866007,417.353845 L933.767722,415.682387 C935.159516,414.767865 936.52925,413.835402 937.876299,412.885344 Z M709.331791,407.547314 C710.170443,408.257019 711.020039,408.95817 711.880416,409.650675 L713.179047,410.682937 L711.944088,412.256111 C710.949658,411.475473 709.968896,410.683613 709.002039,409.880662 L708.039826,409.074018 L709.331791,407.547314 Z M945.771658,406.903156 L947.034398,408.454119 C946.170912,409.15714 945.296166,409.852281 944.410345,410.539432 L943.073329,411.564152 L941.865951,409.969712 C943.192583,408.96513 944.494687,407.942822 945.771658,406.903156 Z M701.997112,400.846008 C702.876768,401.714421 703.771437,402.572166 704.6809,403.419106 L705.595287,404.26244 L704.246433,405.739123 C703.312854,404.88636 702.394158,404.022514 701.490568,403.147723 L700.592023,402.269288 L701.997112,400.846008 Z M953.254894,400.339051 L954.629342,401.791942 C953.71924,402.652907 952.793444,403.504054 951.852203,404.345219 L950.905823,405.183051 L949.587095,403.679404 C950.836947,402.583258 952.059741,401.469677 953.254894,400.339051 Z M695.216693,393.595348 C696.023801,394.531819 696.846998,395.457845 697.686083,396.373286 L698.530455,397.285195 L697.069822,398.651413 C696.206312,397.728228 695.358822,396.794176 694.527561,395.849396 L693.701717,394.901046 L695.216693,393.595348 Z M960.177606,393.256316 L961.662713,394.59589 C960.823027,395.526801 959.966195,396.448099 959.092458,397.359611 L958.213094,398.267855 L956.783178,396.869521 C957.944426,395.682045 959.076086,394.477507 960.177606,393.256316 Z M689.049008,385.80355 C689.774925,386.804878 690.517883,387.796055 691.277697,388.776942 L692.043124,389.754394 L690.474984,390.995739 C689.690847,390.005171 688.923746,389.004034 688.173874,387.99247 L687.429751,386.977436 L689.049008,385.80355 Z M966.520279,385.601502 L968.113593,386.810366 C967.355338,387.809765 966.57854,388.799832 965.783424,389.780389 L964.982209,390.757769 L963.442254,389.481627 C964.500452,388.20467 965.526631,386.911156 966.520279,385.601502 Z M683.574237,377.521503 C684.211245,378.582905 684.866079,379.634521 685.538574,380.676216 L686.216949,381.714598 L684.54855,382.817524 C683.852304,381.764311 683.173944,380.700914 682.513644,379.627474 L681.85937,378.550691 L683.574237,377.521503 Z M972.152411,377.450002 L973.847589,378.511309 C973.18046,379.576883 972.493461,380.633467 971.7868,381.68088 L971.073591,382.725229 L969.428366,381.588024 C970.370854,380.224501 971.279027,378.845019 972.152411,377.450002 Z M674.760657,362.500677 L676.229858,363.501648 L687.608219,371.25377 L686.482126,372.906621 L676.573,366.155 L675.949143,378.129624 L673.951851,378.02557 L674.668165,364.276047 L674.760657,362.500677 Z M678.961212,368.720761 L681.182472,373.20027 L679.390668,374.088774 L677.169408,369.609265 L678.961212,368.720761 Z" fill="#00427A" fill-rule="nonzero" opacity="0.504720052"></path>
        <path id="Path-Copy-3" d="M827.262849,142.956772 L827.302662,144.956375 C825.846014,144.985379 824.388603,144.99993 822.930744,145 L822.598982,144.999751 L822.598982,144.999751 L822.273163,144.998999 L822.279351,142.999009 L822.930695,143 C824.375263,142.99993 825.819434,142.985511 827.262849,142.956772 Z M812.326864,142.728103 C813.43036,142.784894 814.535171,142.8328 815.641111,142.871811 L817.300845,142.923654 L817.246463,144.922915 C816.12868,144.89251 815.011936,144.853117 813.896414,144.804746 L812.224071,144.72546 L812.326864,142.728103 Z M837.220849,142.53057 L837.352085,144.52626 C836.239072,144.599451 835.124985,144.664188 834.009991,144.720453 L832.336841,144.798493 L832.251268,142.800325 C833.909824,142.729296 835.56654,142.639356 837.220849,142.53057 Z M802.399384,141.973754 C803.498236,142.084441 804.599118,142.186213 805.701841,142.27905 L807.357285,142.411603 L807.205802,144.405858 C806.090399,144.321133 804.976746,144.227374 803.865032,144.124602 L802.19894,143.963684 L802.399384,141.973754 Z M847.154554,141.647567 L847.377512,143.635101 C846.269326,143.759415 845.159408,143.875299 844.047931,143.982727 L842.379568,144.137524 L842.20243,142.145384 C843.85663,141.998294 845.507533,141.832327 847.154554,141.647567 Z M792.52186,140.73014 C793.613192,140.895383 794.707292,141.051684 795.80397,141.199016 L797.450898,141.413284 L797.20113,143.397627 C796.090879,143.257881 794.983117,143.109059 793.878034,142.951189 L792.222443,142.7076 L792.52186,140.73014 Z M857.023019,140.308196 L857.338078,142.283225 C856.237066,142.45886 855.133638,142.626089 854.027972,142.784879 L852.367815,143.016733 L852.098866,141.034899 C853.745268,140.81147 855.386851,140.5692 857.023019,140.308196 Z M782.728816,138.991809 C783.809355,139.212313 784.893422,139.423854 785.980827,139.6264 L787.614414,139.923467 L787.264977,141.892704 C786.163056,141.69717 785.064385,141.492527 783.969158,141.278806 L782.328922,140.951423 L782.728816,138.991809 Z M866.828621,138.506091 L867.236675,140.464021 C866.145437,140.691447 865.051067,140.910495 863.953748,141.121125 L862.305579,141.430752 L861.944068,139.463696 C863.578864,139.163248 865.207252,138.844002 866.828621,138.506091 Z M773.031636,136.74736 C774.098587,137.024199 775.169856,137.292055 776.245251,137.550885 L777.861416,137.932357 L777.410522,139.880868 C776.319604,139.628425 775.23273,139.366832 774.150091,139.096132 L772.529334,138.683256 L773.031636,136.74736 Z M876.527253,136.240286 L877.029298,138.176249 C875.951035,138.45587 874.868897,138.727152 873.783069,138.990047 L872.151583,139.378093 L871.696639,137.430523 C873.315116,137.052454 874.925528,136.655655 876.527253,136.240286 Z M763.469003,133.988351 C764.519083,134.322687 765.574298,134.648021 766.634459,134.964302 L768.228384,135.431928 L767.674083,137.353581 C766.597338,137.042994 765.52546,136.723219 764.458642,136.394305 L762.862233,135.894087 L763.469003,133.988351 Z M886.105583,133.502368 L886.703031,135.411047 C885.640192,135.743733 884.572695,136.068114 883.500729,136.384135 L881.889449,136.851889 L881.339831,134.928891 C882.938435,134.471989 884.527229,133.996419 886.105583,133.502368 Z M754.095029,130.711989 C755.123568,131.104578 756.158076,131.488167 757.198364,131.862699 L758.763109,132.417697 L758.103449,134.305777 C757.045491,133.936147 755.993244,133.557312 754.946897,133.169329 L753.381825,132.580502 L754.095029,130.711989 Z M895.505877,130.295424 L896.200114,132.171066 C895.156074,132.5575 894.106559,132.935672 893.051758,133.305519 L891.465617,133.854037 L890.820064,131.961086 C892.393846,131.424379 893.955996,130.869086 895.505877,130.295424 Z M744.903769,126.891878 C745.907688,127.344563 746.91845,127.788239 747.93587,128.222841 L749.466969,128.867932 L748.699532,130.714832 C747.663298,130.284248 746.633663,129.844431 745.610812,129.395444 L744.081649,128.715094 L744.903769,126.891878 Z M904.720297,126.605644 L905.513179,128.441765 C904.490842,128.883235 903.462165,129.316483 902.42734,129.741436 L900.870513,130.372636 L900.127317,128.515849 C901.672086,127.897541 903.203292,127.260724 904.720297,126.605644 Z M735.962203,122.525586 C736.935465,123.038957 737.916448,123.543347 738.904971,124.038685 L740.393389,124.774895 L739.51595,126.572143 C738.507496,126.079804 737.506535,125.578237 736.513251,125.067516 L735.029105,124.294576 L735.962203,122.525586 Z M913.735098,122.41389 L914.628894,124.20306 C913.633606,124.700265 912.631085,125.189318 911.621522,125.670137 L910.101918,126.385179 L909.258828,124.571564 C910.766689,123.87061 912.25899,123.151294 913.735098,122.41389 Z M922.511323,117.706246 L923.508408,119.439977 C922.543004,119.99519 921.569403,120.542301 920.587793,121.08122 L919.109394,121.883445 L918.164151,120.120914 C919.631131,119.334175 921.080398,118.529185 922.511323,117.706246 Z M727.310798,117.600097 C728.248491,118.175357 729.194804,118.741676 730.149559,119.298976 L731.588003,120.128152 L730.598601,121.866278 C729.622814,121.310827 728.655442,120.746168 727.696661,120.172379 L726.264955,119.304859 L727.310798,117.600097 Z M930.988062,112.478882 L932.09054,114.147577 C931.161724,114.76123 930.223727,115.366872 929.276733,115.964406 L927.849518,116.854616 L926.799865,115.152197 C928.216046,114.279028 929.612318,113.387813 930.988062,112.478882 Z M719.021116,112.120998 C719.916758,112.758202 720.821902,113.386542 721.73638,114.005936 L723.115076,114.928307 L722.012463,116.596912 C721.075955,115.978069 720.148773,115.350077 719.231088,114.713021 L717.861703,113.750649 L719.021116,112.120998 Z M939.103115,106.730518 L940.312593,108.323365 C939.425954,108.996607 938.529108,109.661946 937.622237,110.319277 L936.254432,111.299256 L935.098563,109.66709 C936.455808,108.705914 937.790859,107.726938 939.103115,106.730518 Z M711.174506,106.110465 C712.022649,106.80981 712.88117,107.500389 713.749911,108.182114 L715.060666,109.198049 L713.84493,110.786125 C712.953279,110.103531 712.071864,109.411869 711.200848,108.711229 L709.902144,107.653545 L711.174506,106.110465 Z M946.778317,100.475559 L948.095384,101.980662 C947.257682,102.713707 946.408733,103.43899 945.548712,104.156399 L944.250399,105.226593 L942.987307,103.675917 C944.275678,102.626483 945.539541,101.559571 946.778317,100.475559 Z M703.748534,99.5080449 C704.640992,100.364046 705.547645,101.209132 706.468281,102.043175 L707.393569,102.873532 L706.064788,104.368304 C705.120737,103.529087 704.19075,102.678562 703.275045,101.816858 L702.36411,100.951433 L703.748534,99.5080449 Z M954.023014,93.6499307 L955.448146,95.0531413 C954.567775,95.947265 953.671777,96.8317511 952.760392,97.7064307 L951.843886,98.5778353 L950.472555,97.1220018 C951.683173,95.9816529 952.866844,94.8241627 954.023014,93.6499307 Z M696.85245,92.3587104 C697.67565,93.2823365 698.514034,94.1952809 699.367404,95.0974117 L700.225763,95.9959332 L698.78639,97.3845317 C697.909377,96.4754512 697.047473,95.5552886 696.20088,94.6241779 L695.359398,93.6894228 L696.85245,92.3587104 Z M960.695492,86.3237733 L962.226405,87.6107485 C961.419355,88.5707691 960.595396,89.5214463 959.754753,90.4626049 L958.908557,91.4005842 L957.430196,90.05357 C958.547989,88.8267808 959.636594,87.583378 960.695492,86.3237733 Z M690.54782,84.6825266 C691.293753,85.6702706 692.05573,86.6476379 692.833573,87.6144973 L693.616696,88.5778492 L692.071211,89.8472882 C691.269879,88.8717024 690.484574,87.8853457 689.715483,86.888353 L688.951803,85.8878199 L690.54782,84.6825266 Z M966.769386,78.460436 L968.40223,79.6153477 C967.677204,80.6404083 966.934008,81.6564624 966.172852,82.6633306 L965.405718,83.66713 L963.823009,82.444415 C964.836678,81.1322996 965.818964,79.8041672 966.769386,78.460436 Z M684.897413,76.5163486 C685.559048,77.5636023 686.237435,78.6008516 686.932412,79.6279683 L687.632913,80.6517027 L685.988245,81.7897133 C685.270342,80.7521903 684.569231,79.7042876 683.88508,78.6461384 L683.206589,77.5845785 L684.897413,76.5163486 Z M972.136242,70.1276718 L973.863758,71.1354861 C973.229476,72.2227216 972.575847,73.3013428 971.903065,74.3711683 L971.223905,75.4380553 L969.542676,74.3547878 C970.440772,72.960944 971.305441,71.5517658 972.136242,70.1276718 Z M674.745796,59.5081011 L676.220931,60.5003063 L687.645254,68.1845336 L686.529023,69.8440603 L677.302,63.637 L676.539,64.021 L676.027329,75.1296939 L674.029454,75.0375358 L674.663878,61.2839905 L674.745796,59.5081011 Z M680.062113,67.8464547 L681.90215,71.5041393 L682.113486,71.8770371 L682.113486,71.8770371 L682.326184,72.2491584 L680.591631,73.2448108 C680.483121,73.0557733 680.37513,72.8664388 680.258245,72.659163 L680.138047,72.4452533 L678.275698,68.745744 L680.062113,67.8464547 Z" fill="#00427A" fill-rule="nonzero" opacity="0.504720052"></path>
        <g id="Boll-Copy" transform="translate(104.000000, 137.000000)">
            <g id="Oval">
                <use fill="black" fill-opacity="1" filter="url(#filter-10)" xlink:href="#path-9"></use>
                <circle stroke="#005AA0" stroke-width="4.8" stroke-linejoin="square" cx="116" cy="116" r="113.6"></circle>
            </g>
            <text id="Name" font-family="IntroCond-Bold, Intro Cond" font-size="30" font-style="condensed" font-weight="bold" line-spacing="31.2" fill="#00427A">
                <tspan x="75.4655202" y="93.6051445">Förstå</tspan>
            </text>
        </g>
        <text id="--Kundkommentarer--" font-family="IntroCond-Regular, Intro Cond" font-size="26" font-style="condensed" font-weight="normal" line-spacing="36" fill="#00427A">
            <tspan x="70" y="431">- Kundkommentarer</tspan>
            <tspan x="70" y="467">- Vad vill affären?</tspan>
            <tspan x="70" y="503">- Intervjuer</tspan>
            <tspan x="70" y="539">- Kunskap inom -   </tspan>
            <tspan x="70" y="575">   Länsförsäkringar</tspan>
            <tspan x="70" y="611">- ”Vad vi vet sen innan”</tspan>
            <tspan x="70" y="647">- Dataanalys/CRO</tspan>
            <tspan x="70" y="683">- Omvärldsbevakning</tspan>
            <tspan x="70" y="719">- Nollmätning</tspan>
        </text>
        <text id="Designer-genomför-ar" font-family="IntroCond-Regular, Intro Cond" font-size="26" font-style="condensed" font-weight="normal" line-spacing="36" fill="#00427A">
            <tspan x="473" y="494">Designer genomför arbetet i </tspan>
            <tspan x="473" y="530">dialog med:</tspan>
            <tspan x="473" y="566">- UX/design-ansvarig</tspan>
            <tspan x="473" y="602">- Beställare</tspan>
            <tspan x="473" y="638">- Grafisk designer och Copy</tspan>
            <tspan x="473" y="674">- Utvecklare och Arkitekter</tspan>
            <tspan x="473" y="710">- Kund</tspan>
        </text>
        <text id="Uppdatera-design-enl" font-family="ArialMT, Arial" font-size="22" font-weight="normal" line-spacing="30" fill="#00427A">
            <tspan x="738.160156" y="329">Uppdatera design </tspan>
            <tspan x="737.563965" y="359">enligt resultat från </tspan>
            <tspan x="735.104004" y="389">användningstester</tspan>
        </text>
        <text id="Grundprincip:-”Allt" font-family="IntroCond-Bold, Intro Cond" font-size="26" font-style="condensed" font-weight="bold" line-spacing="36" fill="#00427A">
            <tspan x="951.263" y="494">Grundprincip</tspan>
            <tspan x="1095.303" y="494" font-family="IntroCond-Regular, Intro Cond" font-weight="normal">:</tspan>
            <tspan x="883.364" y="530" font-family="IntroCond-Regular, Intro Cond" font-weight="normal">”Allt ska användningstestas </tspan>
            <tspan x="937.054" y="566" font-family="IntroCond-Regular, Intro Cond" font-weight="normal">innan det släpps”</tspan>
            <tspan x="1026" y="602" font-family="IntroCond-Regular, Intro Cond" font-weight="normal"></tspan>
            <tspan x="894.336" y="638" font-family="IntroCond-Regular, Intro Cond" font-weight="normal">Inbokade tester en gång/</tspan>
            <tspan x="990.822" y="674" font-family="IntroCond-Regular, Intro Cond" font-weight="normal">månad</tspan>
            <tspan x="929.514" y="710" font-family="IntroCond-Regular, Intro Cond" font-weight="normal">Guerillatester ofta</tspan>
        </text>
        <text id="Gör-en-Analys-på-att" font-family="IntroCond-Regular, Intro Cond" font-size="26" font-style="condensed" font-weight="normal" line-spacing="36" fill="#00427A">
            <tspan x="1688.218" y="494">Gör en Analys på att det går </tspan>
            <tspan x="1732.405" y="530">som vi tänkt utifrån </tspan>
            <tspan x="1684.669" y="566">flödestratt analys och KPIer.</tspan>
        </text>
        <text id="Designer-finns-tillh" font-family="IntroCond-Regular, Intro Cond" font-size="26" font-style="condensed" font-weight="normal" line-spacing="36" fill="#00427A">
            <tspan x="1307.112" y="494">Designer finns tillhands </tspan>
            <tspan x="1283.062" y="530">under implementationen för </tspan>
            <tspan x="1331.201" y="566">att göra eventuella </tspan>
            <tspan x="1307.307" y="602">förändringar som krävs </tspan>
            <tspan x="1339.092" y="638">under utveckling.</tspan>
        </text>
        <path id="Line-Copy-4" d="M1664.33953,245.286003 L1665.21287,245.773121 L1677.23711,252.479841 L1678.78971,253.345828 L1677.24339,254.222981 L1665.26779,261.016173 L1664.39799,261.509571 L1663.41119,259.769964 L1664.28099,259.276566 L1672.936,254.366 L1664.75894,254.396388 L1596.0036,254.644114 L1595.00361,254.647717 L1594.9964,252.64773 L1595.9964,252.644127 L1664.75173,252.396401 L1672.929,252.366 L1664.23864,247.519793 L1663.3653,247.032676 L1664.33953,245.286003 Z" fill="#005AA0" fill-rule="nonzero" opacity="0.5"></path>
        <path id="Line-Copy-5" d="M1256.33953,245.286003 L1257.21287,245.773121 L1269.23711,252.479841 L1270.78971,253.345828 L1269.24339,254.222981 L1257.26779,261.016173 L1256.39799,261.509571 L1255.41119,259.769964 L1256.28099,259.276566 L1264.936,254.366 L1256.75894,254.396388 L1188.0036,254.644114 L1187.00361,254.647717 L1186.9964,252.64773 L1187.9964,252.644127 L1256.75173,252.396401 L1264.929,252.366 L1256.23864,247.519793 L1255.3653,247.032676 L1256.33953,245.286003 Z" fill="#005AA0" fill-rule="nonzero" opacity="0.5"></path>
        <path id="Line-Copy-6" d="M850.339534,245.286003 L851.212871,245.773121 L863.237113,252.479841 L864.789711,253.345828 L863.243393,254.222981 L851.267791,261.016173 L850.397988,261.509571 L849.411191,259.769964 L850.280995,259.276566 L858.936,254.366 L850.758937,254.396388 L782.003603,254.644114 L781.003609,254.647717 L780.996404,252.64773 L781.996397,252.644127 L850.751731,252.396401 L858.929,252.366 L850.238635,247.519793 L849.365299,247.032676 L850.339534,245.286003 Z" fill="#005AA0" fill-rule="nonzero" opacity="0.5"></path>
        <path id="Line-Copy-7" d="M450.339534,245.286003 L451.212871,245.773121 L463.237113,252.479841 L464.789711,253.345828 L463.243393,254.222981 L451.267791,261.016173 L450.397988,261.509571 L449.411191,259.769964 L450.280995,259.276566 L458.936,254.366 L450.758937,254.396388 L382.003603,254.644114 L381.003609,254.647717 L380.996404,252.64773 L381.996397,252.644127 L450.751731,252.396401 L458.929,252.366 L450.238635,247.519793 L449.365299,247.032676 L450.339534,245.286003 Z" fill="#005AA0" fill-rule="nonzero" opacity="0.5"></path>
    </g>
</svg>