<?xml version="1.0" encoding="UTF-8"?>
<svg width="49px" height="122px" viewBox="0 0 49 122" version="1.1" xmlns="http://www.w3.org/2000/svg" xmlns:xlink="http://www.w3.org/1999/xlink">
    <title>developer_color</title>
    <g id="-designsssssssss" stroke="none" stroke-width="1" fill="none" fill-rule="evenodd">
        <g id="developer_color" transform="translate(2.000000, 2.000000)" stroke="#005AA0" stroke-width="2">
            <polygon id="Stroke-864" points="13.935 65.2875 4.8525 66.465 6.80788759e-13 51.345 9.09 50.16"></polygon>
            <path d="M20.715,12.7875 C15.87,5.865 19.53,2.38475906e-12 19.53,2.38475906e-12 C24.9075,3.1725 34.155,-0.165 41.6025,5.4525 C46.5825,9.21 45.39,16.29 45.39,19.29 C45.39,27.675 38.6625,34.47 30.3675,34.47 C22.0725,34.47 15.3525,27.675 15.3525,19.29 C15.3525,15.6225 16.635,12.255 18.78,9.63" id="Stroke-891"></path>
            <path d="M28.29,27.9375 C31.1475,27.9375 33.4575,25.62 33.4575,22.7625 C33.4575,19.905 31.1475,17.5875 28.29,17.5875 L26.0475,17.5875 C26.0475,17.5875 23.685,15.0675 24.5025,9.285" id="Stroke-892"></path>
            <path d="M32.8875,25.1625 C34.3575,26.0625 38.025,28.7475 38.5125,31.9275" id="Stroke-893"></path>
            <path d="M16.3575,13.275 C14.6475,11.73 12.45,6.5925 15.2175,0.24" id="Stroke-894"></path>
            <path d="M35.6175,16.575 C37.4475,17.55 40.7475,21.2175 41.235,24.0225 C41.235,24.0225 44.535,22.9275 45.39,20.3625" id="Stroke-895"></path>
            <path d="M0.3075,59.295 C2.9175,62.385 8.9475,63.69 12.525,61.575 C19.89,57.225 19.9425,49.11 23.1975,41.7825 L24.7425,41.865 C23.49,55.23 22.695,83.835 22.8675,106.3875" id="Stroke-896"></path>
            <path d="M35.6625,106.3875 C35.6175,87.45 37.0875,60.555 38.55,40.515 C38.55,40.515 33.7875,39.66 28.1625,40.155" id="Stroke-897"></path>
            <path d="M7.275,55.605 C8.6175,54.015 10.575,52.6125 12.6525,52.305 C14.73,52.005 18.45,55.2375 18.45,55.2375" id="Stroke-898"></path>
            <path d="M23.16,75.3375 C24.99,75.4575 32.1975,76.0725 36.105,75.705" id="Stroke-899"></path>
            <polyline id="Stroke-958" points="17.3925 118.5825 24.9075 118.5825 24.7425 111.8925"></polyline>
            <polyline id="Stroke-959" points="28.305 118.5825 35.82 118.5825 35.6625 111.8925"></polyline>
            <path d="M28.38,106.3875 L28.8825,88.5225 C28.965,85.74 30.7725,83.2875 33.4125,82.3875 L33.66,82.2975" id="Stroke-960"></path>
            <line x1="20.79" y1="109.56" x2="29.79" y2="109.56" id="Stroke-961"></line>
            <line x1="32.4" y1="109.56" x2="39.6825" y2="109.56" id="Stroke-962"></line>
        </g>
    </g>
</svg>