<?xml version="1.0" encoding="UTF-8"?>
<svg width="240px" height="120px" viewBox="0 0 240 120" version="1.1" xmlns="http://www.w3.org/2000/svg" xmlns:xlink="http://www.w3.org/1999/xlink">
    <!-- Generator: Sketch 64 (93537) - https://sketch.com -->
    <title>component/graphic object</title>
    <desc>Created with Sketch.</desc>
    <g id="component/graphic-object" stroke="none" stroke-width="1" fill="none" fill-rule="evenodd">
        <g id="outlines" transform="translate(73.000000, 14.000000)" fill-rule="nonzero">
            <path d="M24.5794,56.3891 C15.0539729,56.3891 7.3324,64.1106729 7.3324,73.6361 C7.3324,83.1615271 15.0539729,90.8831 24.5794,90.8831 C34.1039965,90.8831 41.8254,83.1613578 41.8254,73.6361 C41.8254,64.1108422 34.1039965,56.3891 24.5794,56.3891 Z M24.5794,59.3891 C32.4471128,59.3891 38.8254,65.767667 38.8254,73.6361 C38.8254,81.504533 32.4471128,87.8831 24.5794,87.8831 C16.7108271,87.8831 10.3324,81.5046729 10.3324,73.6361 C10.3324,65.7675271 16.7108271,59.3891 24.5794,59.3891 Z" id="Stroke-1" fill="#005AA0"></path>
            <path d="M24.5794,48.0571 C38.1406054,48.0571 49.2369812,58.6116331 50.1029934,71.9543061 L50.112,72.136 L65.8734,72.1361 L65.8734,75.1361 L47.1574,75.1361 L47.1574,73.6361 C47.1574,61.1663171 37.0487629,51.0571 24.5794,51.0571 C12.2338843,51.0571 2.20281179,60.9650016 2.00342489,73.2627182 L2.0004,73.6361 L-0.9996,73.6361 C-0.9996,59.5093371 10.4523086,48.0571 24.5794,48.0571 Z" id="Stroke-3" fill="#005AA0"></path>
            <path d="M77.0694,65.4904 C70.0576482,65.4904 64.3734,71.1742975 64.3734,78.1864 C64.3734,85.1985025 70.0576482,90.8824 77.0694,90.8824 C84.0819765,90.8824 89.7664,85.1986778 89.7664,78.1864 C89.7664,71.1741222 84.0819765,65.4904 77.0694,65.4904 Z M77.0694,68.4904 C82.4252051,68.4904 86.7664,72.8310593 86.7664,78.1864 C86.7664,83.5417407 82.4252051,87.8824 77.0694,87.8824 C71.714461,87.8824 67.3734,83.5416068 67.3734,78.1864 C67.3734,72.8311932 71.714461,68.4904 77.0694,68.4904 Z" id="Stroke-5" fill="#005AA0"></path>
            <polygon id="Stroke-7" fill="#005AA0" points="9.1571 20.8376 49.013136 20.8376 60.455 46.34 84.8031 46.3406 84.8031 68.8846 81.8031 68.8846 81.803 49.34 58.514064 49.3406 47.071 23.837 12.157 23.837 12.1571 53.9916 9.1571 53.9916"></polygon>
            <path d="M4.4701,-1.0001 C8.6338843,-1.0001 12.0244345,2.31037746 12.1533004,6.44288212 L12.1571,6.6869 L12.1571,32.7739 L9.1571,32.7739 L9.1571,6.6869 C9.1571,4.17023193 7.173633,2.11685748 4.68464534,2.004723 L4.4701,1.9999 L4.4701,-1.0001 Z" id="Stroke-9" fill="#005AA0"></path>
            <polygon id="Stroke-11" fill="#005AA0" points="34.6869 23.6195 34.6869 42.2835 31.6869 42.2835 31.6869 23.6195"></polygon>
            <path d="M24.5798,67.3311 C21.096967,67.3311 18.2748,70.1540785 18.2748,73.6361 C18.2748,77.1180271 21.0968729,79.9401 24.5798,79.9401 C28.061133,79.9401 30.8828,77.1176213 30.8828,73.6361 C30.8828,70.1544844 28.061039,67.3311 24.5798,67.3311 Z M24.5798,70.3311 C26.4037984,70.3311 27.8828,71.8109525 27.8828,73.6361 C27.8828,75.4609602 26.4040856,76.9401 24.5798,76.9401 C22.7537271,76.9401 21.2748,75.4611729 21.2748,73.6361 C21.2748,71.8107397 22.7540144,70.3311 24.5798,70.3311 Z" id="Stroke-13" fill="#E30613"></path>
        </g>
    </g>
</svg>