<?xml version="1.0" encoding="UTF-8"?>
<svg width="240px" height="120px" viewBox="0 0 240 120" version="1.1" xmlns="http://www.w3.org/2000/svg" xmlns:xlink="http://www.w3.org/1999/xlink">
    <!-- Generator: Sketch 64 (93537) - https://sketch.com -->
    <title>component/icons</title>
    <desc>Created with Sketch.</desc>
    <g id="component/icons" stroke="none" stroke-width="1" fill="none" fill-rule="evenodd">
        <g id="Icons/32px/tractor-32" transform="translate(39.000000, 58.000000)">
            <g id="Icons/32px/truck-32">
                <rect id="invisible-32" x="0" y="0" width="32" height="32"></rect>
                <g id="outllines" transform="translate(1.262614, 4.000000)" fill="#005AA0">
                    <path d="M8.27637713,13.88 C11.214532,13.88 13.5963771,16.2618451 13.5963771,19.2 C13.5963771,22.1381549 11.214532,24.52 8.27637713,24.52 C5.33822226,24.52 2.95637713,22.1381549 2.95637713,19.2 C2.95637713,16.2618451 5.33822226,13.88 8.27637713,13.88 Z M15.8136431,0.117647059 L19.1307922,10.64 L21.2416209,10.6396471 L21.2416603,5.17289064 C21.2416603,5.11208044 21.2348763,5.0426854 21.2222829,4.97215112 L21.1991578,4.86642595 C21.0675685,4.36052921 20.6075978,4 20.0763771,4 L20.0763771,4 L20.0763771,2 C21.5237583,2 22.7752755,2.98095043 23.1347505,4.36295723 C23.2032051,4.62613182 23.2416603,4.9045939 23.2416603,5.17289064 L23.2416603,5.17289064 L23.2416209,10.6396471 L26.5471188,10.64 L26.602586,16.6108351 C27.8665001,17.3448307 28.7163771,18.7131657 28.7163771,20.28 C28.7163771,22.6216873 26.8180645,24.52 24.4763771,24.52 C22.1346898,24.52 20.2363771,22.6216873 20.2363771,20.28 C20.2363771,20.2532226 20.2366254,20.2265031 20.2371196,20.1998438 L14.8363771,20.2 L14.8363771,19.2 C14.8363771,15.577012 11.8993651,12.64 8.27637713,12.64 C5.32106708,12.64 2.75335451,14.6116837 1.96237908,17.4132635 L1.96237908,17.4132635 L0.0376209212,16.8698428 C0.536862374,15.1015644 1.57761531,13.5869985 2.95534347,12.4941062 L2.95637713,0.117647059 L15.8136431,0.117647059 Z M8.27637713,15.88 C6.44279176,15.88 4.95637713,17.3664146 4.95637713,19.2 C4.95637713,21.0335854 6.44279176,22.52 8.27637713,22.52 C10.1099625,22.52 11.5963771,21.0335854 11.5963771,19.2 C11.5963771,17.3664146 10.1099625,15.88 8.27637713,15.88 Z M24.4763771,18.04 C23.2392593,18.04 22.2363771,19.0428822 22.2363771,20.28 C22.2363771,21.5171178 23.2392593,22.52 24.4763771,22.52 C25.713495,22.52 26.7163771,21.5171178 26.7163771,20.28 C26.7163771,19.0428822 25.713495,18.04 24.4763771,18.04 Z M8.27662092,2.11664706 L4.95637713,2.11764706 L4.95563188,11.3092732 C5.98212526,10.8769457 7.10591194,10.64 8.27637713,10.64 C12.6656596,10.64 16.2833421,13.9436124 16.7785874,18.2 L16.7785874,18.2 L20.7811216,18.1993667 C21.5084704,16.9103499 22.8907832,16.04 24.4763771,16.04 C24.5172127,16.04 24.5579135,16.0405773 24.5984717,16.0417241 L24.5656355,12.64 L17.6642603,12.64 L14.3471112,2.11764706 L10.2766209,2.11664706 L10.2773862,9 L8.27738623,9 L8.27662092,2.11664706 Z" id="Combined-Shape"></path>
                </g>
            </g>
        </g>
        <g id="Icons/40px/tractor-40" transform="translate(83.000000, 51.000000)">
            <g>
                <rect id="invisible-40" x="0" y="0" width="40" height="40"></rect>
                <g id="outlines" transform="translate(2.000000, 5.000000)" fill="#005AA0">
                    <path d="M10.1628453,17.4785185 C13.7195591,17.4785185 16.6028453,20.3618047 16.6028453,23.9185185 C16.6028453,27.4752323 13.7195591,30.3585185 10.1628453,30.3585185 C6.60613149,30.3585185 3.72284528,27.4752323 3.72284528,23.9185185 C3.72284528,20.3618047 6.60613149,17.4785185 10.1628453,17.4785185 Z M19.4641112,0.148148148 L23.641,13.398 L26.7486209,13.3971481 L26.7487575,6.25475117 C26.7487575,6.11693247 26.7265296,5.95597622 26.6868866,5.80356821 C26.5038438,5.0998573 25.8931387,4.58616614 25.1684658,4.52470362 L25.0221045,4.51851852 L25.0221045,2.51851852 C26.7259712,2.51851852 28.1993479,3.67336446 28.6224794,5.3000995 C28.6831238,5.53324779 28.723833,5.77653388 28.7403973,6.01645365 L28.7487575,6.25475117 L28.7486209,13.3981481 L32.9135869,13.3985185 L32.9822612,20.8105538 C34.5669276,21.6704686 35.6428453,23.3488465 35.6428453,25.2785185 C35.6428453,28.084125 33.3684518,30.3585185 30.5628453,30.3585185 C27.7572387,30.3585185 25.4828453,28.084125 25.4828453,25.2785185 C25.4828453,25.1573766 25.4870856,25.037225 25.495426,24.9182042 L18.6828453,24.9185185 L18.6828453,23.9185185 C18.6828453,19.2130525 14.8683113,15.3985185 10.1628453,15.3985185 C6.41379994,15.3985185 3.1451337,17.8414986 2.03777756,21.3460023 L1.96237908,21.5981107 L0.0376209212,21.05469 C0.663072783,18.8393831 1.98018372,16.9480564 3.72261185,15.5994411 L3.72284528,0.148148148 L19.4641112,0.148148148 Z M10.1628453,19.4785185 C7.71070099,19.4785185 5.72284528,21.4663742 5.72284528,23.9185185 C5.72284528,26.3706628 7.71070099,28.3585185 10.1628453,28.3585185 C12.6149896,28.3585185 14.6028453,26.3706628 14.6028453,23.9185185 C14.6028453,21.4663742 12.6149896,19.4785185 10.1628453,19.4785185 Z M30.5628453,22.1985185 C28.8618082,22.1985185 27.4828453,23.5774815 27.4828453,25.2785185 C27.4828453,26.9795555 28.8618082,28.3585185 30.5628453,28.3585185 C32.2638823,28.3585185 33.6428453,26.9795555 33.6428453,25.2785185 C33.6428453,23.5774815 32.2638823,22.1985185 30.5628453,22.1985185 Z M10.4226209,2.14714815 L5.722,2.148 L5.7233293,14.3799318 C7.07978274,13.7480511 8.58689082,13.3985185 10.1628453,13.3985185 C15.5918949,13.3985185 20.0604148,17.5110352 20.6231057,22.7907692 L20.635,22.918 L26.0633571,22.9181207 C26.9133257,21.3012094 28.6093118,20.1985185 30.5628453,20.1985185 C30.7023319,20.1985185 30.8405055,20.2041403 30.9771518,20.2151698 L30.931,15.398 L22.17473,15.3985185 L17.998,2.148 L12.4226209,2.14714815 L12.4233753,11.0740741 L10.4233753,11.0740741 L10.4226209,2.14714815 Z" id="Combined-Shape"></path>
                </g>
            </g>
        </g>
        <g id="Icons/70px/tractor-70" transform="translate(134.000000, 27.000000)">
            <g id="Icons/70px/truck-70">
                <rect id="invisible-70" x="0" y="0" width="70" height="70"></rect>
                <g id="outlines" transform="translate(7.000000, 9.000000)" fill="#005AA0">
                    <path d="M15,30 C20.5228475,30 25,34.4771525 25,40 C25,45.5228475 20.5228475,50 15,50 C9.4771525,50 5,45.5228475 5,40 C5,34.4771525 9.4771525,30 15,30 Z M46.4773862,36.4 C50.1997854,36.4 53.2173862,39.4176008 53.2173862,43.14 C53.2173862,46.8623992 50.1997854,49.88 46.4773862,49.88 C42.754987,49.88 39.7373862,46.8623992 39.7373862,43.14 C39.7373862,39.4176008 42.754987,36.4 46.4773862,36.4 Z M15,32 C10.581722,32 7,35.581722 7,40 C7,44.418278 10.581722,48 15,48 C19.418278,48 23,44.418278 23,40 C23,35.581722 19.418278,32 15,32 Z M46.4773862,38.4 C43.8595565,38.4 41.7373862,40.5221703 41.7373862,43.14 C41.7373862,45.7578297 43.8595565,47.88 46.4773862,47.88 C49.0952159,47.88 51.2173862,45.7578297 51.2173862,43.14 C51.2173862,40.5221703 49.0952159,38.4 46.4773862,38.4 Z M15,36 C17.209139,36 19,37.790861 19,40 C19,42.209139 17.209139,44 15,44 C12.790861,44 11,42.209139 11,40 C11,37.790861 12.790861,36 15,36 Z M15,38 C13.8954305,38 13,38.8954305 13,40 C13,41.1045695 13.8954305,42 15,42 C16.1045695,42 17,41.1045695 17,40 C17,38.8954305 16.1045695,38 15,38 Z M28.8652098,-6.75015599e-14 L35.2537933,21.64 L40.7477634,21.64 L40.7487575,8.25475117 C40.7487575,8.16287204 40.7388784,8.06070955 40.7205463,7.95765209 L40.6868866,7.80356821 C40.4916409,7.05294324 39.8098106,6.51851852 39.0221045,6.51851852 L39.0221045,6.51851852 L39.0221045,4.51851852 C40.7259712,4.51851852 42.1993479,5.67336446 42.6224794,7.3000995 C42.7033386,7.61096389 42.7487575,7.93985103 42.7487575,8.25475117 L42.7487575,8.25475117 L42.7477634,21.64 L50.2853137,21.64 L50.3853268,33.4386069 C51.2695605,33.7681991 52.1069831,34.2171262 52.8767004,34.7754607 L52.8767004,34.7754607 L51.7023662,36.3943922 C50.2632869,35.3505186 48.5346459,34.78 46.7173862,34.78 C43.0427662,34.78 39.7833839,37.2230669 38.6389494,40.711703 L38.6389494,40.711703 L38.413156,41.4 L35.7373862,41.4 L35.7373862,39.4 L36.9909233,39.4 C38.5861267,35.4725511 42.4120832,32.78 46.7173862,32.78 C47.2797704,32.78 47.8356309,32.8243915 48.3809083,32.9112457 L48.302213,23.64 L33.7589004,23.64 L27.3703169,2 L18.7767634,1.999 L18.7773862,23 L16.7773862,23 L16.7767634,1.999 L7.59998505,2 L5.574013,22.5410233 L7.28656599,28.2237197 C9.56077811,26.7414042 12.2766749,25.88 15.1937634,25.88 C22.8026114,25.88 28.7836275,31.7942652 29.2682735,39.3999628 L29.2682735,39.3999628 L32.7374247,39.3998294 L32.7374247,41.3998294 L27.3,41.4000385 L27.3,40.4 C27.3,33.4047767 22.0086723,27.88 15.1937634,27.88 C8.29020399,27.88 2.69376336,33.4764406 2.69376336,40.38 L2.69376336,40.38 L0.693763365,40.38 C0.693763365,36.0560281 2.58642732,32.1741115 5.58850223,29.5175033 L3.54478431,22.7389767 L5.78754168,-6.75015599e-14 L28.8652098,-6.75015599e-14 Z" id="Combined-Shape"></path>
                </g>
            </g>
        </g>
    </g>
</svg>