<?xml version="1.0" encoding="UTF-8"?>
<svg width="240px" height="120px" viewBox="0 0 240 120" version="1.1" xmlns="http://www.w3.org/2000/svg" xmlns:xlink="http://www.w3.org/1999/xlink">
    <!-- Generator: Sketch 61 (89581) - https://sketch.com -->
    <title>modal</title>
    <desc>Created with Sketch.</desc>
    <g id="Gladdesign" stroke="none" stroke-width="1" fill="none" fill-rule="evenodd">
        <g id="sidlayout-Component-landing-micro-interactions" transform="translate(-426.000000, -641.000000)">
            <g id="modal" transform="translate(426.000000, 641.000000)">
                <g id="Group">
                    <g id="Organisms/Callout/Smaller-Copy-2">
                        <rect id="Background" stroke="#6B7070" stroke-width="2" fill="#6B7070" x="1" y="1" width="238" height="118"></rect>
                        <g id="Group-3" transform="translate(80.000000, 21.000000)">
                            <g id="Group-4">
                                <polygon id="Rectangle-Copy" fill="#FFFFFF" points="9.86585813e-12 0 80 0 80 56 9.86585813e-12 56"></polygon>
                                <polygon id="Rectangle-Copy-7" fill="#D5D5D5" points="11.8838174 24.5 67.8838174 24.5 67.8838174 26.5 11.8838174 26.5"></polygon>
                                <polygon id="Rectangle-Copy-7" fill="#D5D5D5" points="11.8838174 34.5 67.8838174 34.5 67.8838174 36.5 11.8838174 36.5"></polygon>
                                <polygon id="Rectangle-Copy-7" fill="#D5D5D5" points="11.8838174 44.5 54.8838174 44.5 54.8838174 46.5 11.8838174 46.5"></polygon>
                                <polygon id="Rectangle-Copy-8" fill="#D5D5D5" points="11.8838174 7.5 51.8838174 7.5 51.8838174 11.5 11.8838174 11.5"></polygon>
                            </g>
                        </g>
                    </g>
                </g>
                <rect id="Rectangle" fill="#D8D8D8" transform="translate(154.535534, 26.535534) rotate(-45.000000) translate(-154.535534, -26.535534) " x="153.535534" y="22.5355339" width="2" height="8"></rect>
                <rect id="Rectangle" fill="#D8D8D8" transform="translate(154.535534, 26.535534) rotate(-135.000000) translate(-154.535534, -26.535534) " x="153.535534" y="22.5355339" width="2" height="8"></rect>
            </g>
        </g>
    </g>
</svg>
