<?xml version="1.0" encoding="UTF-8"?>
<svg width="240px" height="120px" viewBox="0 0 240 120" version="1.1" xmlns="http://www.w3.org/2000/svg" xmlns:xlink="http://www.w3.org/1999/xlink">
    <!-- Generator: Sketch 61 (89581) - https://sketch.com -->
    <title>nav</title>
    <desc>Created with Sketch.</desc>
    <g id="Gladdesign" stroke="none" stroke-width="1" fill="none" fill-rule="evenodd">
        <g id="sidlayout-Component-landing-page-navigations-Copy" transform="translate(-426.000000, -655.000000)">
            <g id="nav" transform="translate(426.000000, 655.000000)">
                <rect id="Background" stroke="#F3F3F3" stroke-width="2" fill="#F3F3F3" x="1" y="1" width="238" height="118"></rect>
                <g id="Group" transform="translate(28.000000, 20.000000)">
                    <polygon id="Rectangle-Copy" fill="#FFFFFF" points="2.30614434e-11 16 187 16 187 78 2.30614434e-11 78"></polygon>
                    <rect id="Rectangle" fill="#FFFFFF" x="0" y="0" width="58" height="16"></rect>
                    <polygon id="Rectangle-Copy-7" fill="#D5D5D5" points="10 29 134 29 134 31 10 31"></polygon>
                    <polygon id="Rectangle-Copy-7" fill="#D5D5D5" points="10 39 169 39 169 41 10 41"></polygon>
                    <polygon id="Rectangle-Copy-7" fill="#D5D5D5" points="10 49 147 49 147 51 10 51"></polygon>
                    <polygon id="Rectangle-Copy-7" fill="#D5D5D5" points="10 59 160 59 160 61 10 61"></polygon>
                    <polygon id="Rectangle-Copy-8" fill="#005AA0" points="10 7 46 7 46 9 10 9"></polygon>
                    <rect id="Rectangle" fill="#E5E5E5" x="62" y="0" width="40" height="16"></rect>
                    <polygon id="Rectangle-Copy-8" fill="#B1B3B6" points="72 7 93 7 93 9 72 9"></polygon>
                    <rect id="Rectangle" fill="#E5E5E5" x="106" y="0" width="40" height="16"></rect>
                    <polygon id="Rectangle-Copy-8" fill="#B1B3B6" points="116 7 137 7 137 9 116 9"></polygon>
                </g>
            </g>
        </g>
    </g>
</svg>