<?xml version="1.0" encoding="UTF-8"?>
<svg width="240px" height="120px" viewBox="0 0 240 120" version="1.1" xmlns="http://www.w3.org/2000/svg" xmlns:xlink="http://www.w3.org/1999/xlink">
    <!-- Generator: Sketch 61 (89581) - https://sketch.com -->
    <title>pagination</title>
    <desc>Created with Sketch.</desc>
    <g id="Gladdesign" stroke="none" stroke-width="1" fill="none" fill-rule="evenodd">
        <g id="sidlayout-Component-landing-page-navigations-Copy" transform="translate(-426.000000, -1018.000000)">
            <g id="pagination" transform="translate(426.000000, 1018.000000)">
                <rect id="Background" stroke="#F3F3F3" stroke-width="2" fill="#F3F3F3" x="1" y="1" width="238" height="118"></rect>
                <rect id="Rectangle" stroke="#DCDDDE" stroke-width="2" x="122" y="87" width="86" height="12"></rect>
                <rect id="Rectangle-Copy" fill="#DCDDDE" x="28" y="64" width="181" height="2"></rect>
                <rect id="Rectangle-Copy-3" fill="#DCDDDE" x="28" y="76" width="181" height="2"></rect>
                <rect id="Rectangle-Copy" fill="#DCDDDE" x="28" y="86" width="83" height="2"></rect>
                <rect id="Rectangle-Copy-3" fill="#DCDDDE" x="28" y="98" width="83" height="2"></rect>
                <polygon id="Rectangle-Copy-8" fill="#D5D5D5" points="28 48 91 48 91 52 28 52"></polygon>
                <g id="Group" transform="translate(155.000000, 23.000000)">
                    <polygon id="Rectangle-Copy" fill="#FFFFFF" points="1.47987872e-12 0 12 0 12 12 1.47987872e-12 12"></polygon>
                    <polygon id="Rectangle-Copy-9" fill="#FFFFFF" points="28 0 40 0 40 12 28 12"></polygon>
                    <polygon id="Rectangle-Copy-11" fill="#FFFFFF" points="42 0 54 0 54 12 42 12"></polygon>
                    <polygon id="Rectangle-Copy-6" fill="#005AA0" points="14 0 26 0 26 12 14 12"></polygon>
                    <polygon id="Rectangle-Copy-8" fill="#005AA0" transform="translate(6.000000, 6.000000) rotate(-270.000000) translate(-6.000000, -6.000000) " points="5 4 7 4 7 8 5 8"></polygon>
                    <polygon id="Rectangle-Copy-10" fill="#005AA0" transform="translate(34.000000, 6.000000) rotate(-270.000000) translate(-34.000000, -6.000000) " points="33 4 35 4 35 8 33 8"></polygon>
                    <polygon id="Rectangle-Copy-12" fill="#005AA0" transform="translate(48.000000, 6.000000) rotate(-270.000000) translate(-48.000000, -6.000000) " points="47 4 49 4 49 8 47 8"></polygon>
                    <polygon id="Rectangle-Copy-8" fill="#FFFFFF" transform="translate(20.000000, 6.000000) rotate(-270.000000) translate(-20.000000, -6.000000) " points="19 4 21 4 21 8 19 8"></polygon>
                </g>
            </g>
        </g>
    </g>
</svg>