<?xml version="1.0" encoding="UTF-8"?>
<svg width="240px" height="120px" viewBox="0 0 240 120" version="1.1" xmlns="http://www.w3.org/2000/svg" xmlns:xlink="http://www.w3.org/1999/xlink">
    <!-- Generator: Sketch 61 (89581) - https://sketch.com -->
    <title>panel</title>
    <desc>Created with Sketch.</desc>
    <g id="Gladdesign" stroke="none" stroke-width="1" fill="none" fill-rule="evenodd">
        <g id="sidlayout-Component-landing-micro-interactions-Copy" transform="translate(-426.000000, -820.000000)">
            <g id="panel" transform="translate(426.000000, 820.000000)">
                <rect id="Background" stroke="#F3F3F3" stroke-width="2" fill="#F3F3F3" x="1" y="1" width="238" height="118"></rect>
                <g id="Group" transform="translate(28.000000, 24.000000)">
                    <polygon id="Rectangle-Copy" fill="#FFFFFF" points="2.30614434e-11 0 187 0 187 71 2.30614434e-11 71"></polygon>
                    <polygon id="Rectangle-Copy-7" fill="#D5D5D5" points="10 28 38 28 38 30 10 30"></polygon>
                    <polygon id="Rectangle-Copy-7" fill="#D5D5D5" points="10 38 46 38 46 40 10 40"></polygon>
                    <polygon id="Rectangle-Copy-7" fill="#D5D5D5" points="10 48 41 48 41 50 10 50"></polygon>
                    <polygon id="Rectangle-Copy-7" fill="#D5D5D5" points="10 58 44 58 44 60 10 60"></polygon>
                    <polygon id="Rectangle-Copy-7" fill="#D5D5D5" points="60 28 121 28 121 30 60 30"></polygon>
                    <polygon id="Rectangle-Copy-7" fill="#D5D5D5" points="60 38 116 38 116 40 60 40"></polygon>
                    <polygon id="Rectangle-Copy-7" fill="#D5D5D5" points="60 48 120 48 120 50 60 50"></polygon>
                    <polygon id="Rectangle-Copy-7" fill="#D5D5D5" points="60 58 123 58 123 60 60 60"></polygon>
                    <polygon id="Rectangle-Copy-7" fill="#D5D5D5" points="161 28 174 28 174 30 161 30"></polygon>
                    <polygon id="Rectangle-Copy-7" fill="#D5D5D5" points="155 38 174 38 174 40 155 40"></polygon>
                    <polygon id="Rectangle-Copy-7" fill="#D5D5D5" points="159 48 174 48 174 50 159 50"></polygon>
                    <polygon id="Rectangle-Copy-7" fill="#D5D5D5" points="156 58 174 58 174 60 156 60"></polygon>
                    <polygon id="Rectangle-Copy-8" fill="#005AA0" points="10 7 78 7 78 11 10 11"></polygon>
                    <rect id="Rectangle" fill="#005AA0" x="0" y="17" width="187" height="2"></rect>
                </g>
            </g>
        </g>
    </g>
</svg>