<?xml version="1.0" encoding="UTF-8"?>
<svg width="240px" height="120px" viewBox="0 0 240 120" version="1.1" xmlns="http://www.w3.org/2000/svg" xmlns:xlink="http://www.w3.org/1999/xlink">
    <!-- Generator: Sketch 61 (89581) - https://sketch.com -->
    <title>pie chart</title>
    <desc>Created with Sketch.</desc>
    <g id="Gladdesign" stroke="none" stroke-width="1" fill="none" fill-rule="evenodd">
        <g id="sidlayout-Component-landing-page-data" transform="translate(-426.000000, -822.000000)">
            <g id="pie-chart" transform="translate(426.000000, 822.000000)">
                <rect id="Background" stroke="#F3F3F3" stroke-width="2" fill="#FFFFFF" x="1" y="1" width="238" height="118"></rect>
                <rect id="Rectangle" fill="#DCDDDE" x="123" y="63" width="85" height="2"></rect>
                <rect id="Rectangle-Copy-7" fill="#DCDDDE" x="123" y="73" width="85" height="2"></rect>
                <rect id="Rectangle-Copy-13" fill="#DCDDDE" x="123" y="83" width="85" height="2"></rect>
                <path d="M73,28 C90.7388556,28.5670248 105.146115,42.7335054 105.963178,60.4046034 L105.983799,60.9411588 L100,61 C99.5524711,46.3937452 87.9000452,34.7236744 73.3536756,34.0316983 L73,34 L73,28 Z" id="Path" fill="#005AA0" fill-rule="nonzero"></path>
                <path d="M71,28 L71,34 C55.9198806,34.475535 44,46.8711499 44,62 C44,77.463973 56.536027,90 72,90 C86.9492117,90 99.2204037,78.2627462 99.9642862,63.4279822 L100,63 L106,63 C105.374163,81.2761601 90.3366627,96 72,96 C53.2223185,96 38,80.7776815 38,62 C38,43.8123232 52.3038061,28.895749 70.3620164,28.0388115 L71,28 Z" id="Path" fill="#DCDDDE" fill-rule="nonzero"></path>
                <g id="Group-5" transform="translate(123.000000, 37.000000)">
                    <polygon id="Rectangle-Copy-10" fill="#005AA0" points="0 0 4 0 4 2 4 4 0 4"></polygon>
                    <polygon id="Rectangle-Copy-11" fill="#D5D5D5" points="0 8 4 8 4 10 4 12 0 12"></polygon>
                    <polygon id="Rectangle-Copy-10" fill="#DCDDDE" points="8 1 43 1 43 2 43 3 8 3"></polygon>
                    <polygon id="Rectangle-Copy-11" fill="#DCDDDE" points="8 9 43 9 43 10 43 11 8 11"></polygon>
                </g>
            </g>
        </g>
    </g>
</svg>