<?xml version="1.0" encoding="UTF-8"?>
<svg width="240px" height="120px" viewBox="0 0 240 120" version="1.1" xmlns="http://www.w3.org/2000/svg" xmlns:xlink="http://www.w3.org/1999/xlink">
    <!-- Generator: Sketch 61 (89581) - https://sketch.com -->
    <title>price box</title>
    <desc>Created with Sketch.</desc>
    <defs>
        <polygon id="path-1" points="13.2928932 6.29289322 14.7071068 7.70710678 9 13.4142136 5.29289322 9.70710678 6.70710678 8.29289322 9 10.5857864"></polygon>
    </defs>
    <g id="Gladdesign" stroke="none" stroke-width="1" fill="none" fill-rule="evenodd">
        <g id="sidlayout-Component-landing-micro-interactions-Copy" transform="translate(-426.000000, -1006.000000)">
            <g id="price-box" transform="translate(426.000000, 1006.000000)">
                <rect id="Background" stroke="#F3F3F3" stroke-width="2" fill="#F3F3F3" x="1" y="1" width="238" height="118"></rect>
                <g id="Group" transform="translate(28.000000, 21.000000)">
                    <polygon id="Rectangle-Copy" fill="#FFFFFF" points="124 0 187 0 187 59 124 59"></polygon>
                    <polygon id="Rectangle-Copy" fill="#FFFFFF" points="1.43054943e-11 0 116 0 116 78 1.43054943e-11 78"></polygon>
                    <polygon id="Rectangle-Copy-12" fill="#E5EFF7" points="132 39 180 39 180 52 132 52"></polygon>
                    <polygon id="Rectangle-Copy-7" fill="#D5D5D5" points="132 20 160 20 160 22 132 22"></polygon>
                    <polygon id="Rectangle-Copy-7" fill="#D5D5D5" points="132 30 168 30 168 32 132 32"></polygon>
                    <polygon id="Rectangle-Copy-7" fill="#005AA0" points="149 45 170 45 170 47 149 47"></polygon>
                    <g id="Icons/20px/check-20" transform="translate(131.000000, 35.000000)">
                        <g id="outlines">
                            <g>
                                <rect id="invisible-20" x="0" y="0" width="20" height="20"></rect>
                                <mask id="mask-2" fill="white">
                                    <use xlink:href="#path-1"></use>
                                </mask>
                                <use id="Combined-Shape" fill="#005AA0" xlink:href="#path-1"></use>
                            </g>
                        </g>
                    </g>
                    <polygon id="Rectangle-Copy-8" fill="#005AA0" points="132 6 170 6 170 12 132 12"></polygon>
                    <polygon id="Rectangle-Copy-10" fill="#005AA0" points="172 6 180 6 180 12 172 12"></polygon>
                    <rect id="Rectangle-Copy" fill="#DCDDDE" x="8" y="7" width="44" height="2"></rect>
                    <rect id="Rectangle-Copy-4" fill="#DCDDDE" x="8" y="42" width="44" height="2"></rect>
                    <rect id="Rectangle-Copy-2" stroke="#DCDDDE" stroke-width="2" x="9" y="16" width="92" height="15"></rect>
                    <rect id="Rectangle-Copy-11" stroke="#DCDDDE" stroke-width="2" x="9" y="51" width="92" height="15"></rect>
                </g>
            </g>
        </g>
    </g>
</svg>