<?xml version="1.0" encoding="UTF-8"?>
<svg width="240px" height="120px" viewBox="0 0 240 120" version="1.1" xmlns="http://www.w3.org/2000/svg" xmlns:xlink="http://www.w3.org/1999/xlink">
    <!-- Generator: Sketch 61 (89581) - https://sketch.com -->
    <title>primary link</title>
    <desc>Created with Sketch.</desc>
    <g id="Gladdesign" stroke="none" stroke-width="1" fill="none" fill-rule="evenodd">
        <g id="sidlayout-Component-landing" transform="translate(-427.000000, -986.000000)">
            <g id="primary-link" transform="translate(427.000000, 986.000000)">
                <g id="Group">
                    <g id="Organisms/Callout/Smaller-Copy-2">
                        <rect id="Background" stroke="#F3F3F3" stroke-width="2" fill="#FFFFFF" x="1" y="1" width="238" height="118"></rect>
                        <g id="Group-3" transform="translate(26.883817, 24.000000)">
                            <rect id="Rectangle" fill="#DCDDDE" x="0" y="0" width="110.539419" height="6"></rect>
                            <rect id="Rectangle-Copy" fill="#DCDDDE" x="0" y="17" width="178.257261" height="2"></rect>
                            <rect id="Rectangle-Copy-3" fill="#DCDDDE" x="0" y="27" width="178.257261" height="2"></rect>
                            <rect id="Rectangle-Copy-4" fill="#DCDDDE" x="0" y="37" width="178.257261" height="2"></rect>
                            <rect id="Rectangle-Copy-5" fill="#DCDDDE" x="-1.47792889e-12" y="46" width="48.7966805" height="2"></rect>
                            <rect id="Rectangle-Copy-7" fill="#AD1015" x="2.11618257" y="64" width="48.7966805" height="2"></rect>
                            <g id="Icons/special/right-arrow-21x12" transform="translate(57.116183, 59.000000)" fill="#AD1015">
                                <g id="outlines">
                                    <g transform="translate(0.000000, 1.000000)">
                                        <path d="M15.2071068,-0.707106781 L20.9142136,5 L15.2071068,10.7071068 L13.7928932,9.29289322 L17.085,5.99989322 L-1.70530257e-13,6 L-1.70530257e-13,4 L17.085,3.99989322 L13.7928932,0.707106781 L15.2071068,-0.707106781 Z" id="Combined-Shape"></path>
                                    </g>
                                </g>
                            </g>
                        </g>
                    </g>
                </g>
            </g>
        </g>
    </g>
</svg>