<?xml version="1.0" encoding="UTF-8"?>
<svg width="240px" height="120px" viewBox="0 0 240 120" version="1.1" xmlns="http://www.w3.org/2000/svg" xmlns:xlink="http://www.w3.org/1999/xlink">
    <title>patterns/read more</title>
    <g id="patterns/read-more" stroke="none" stroke-width="1" fill="none" fill-rule="evenodd">
        <rect id="Background" stroke="#F3F3F3" stroke-width="2" fill="#FFFFFF" x="1" y="1" width="238" height="118"></rect>
        <g id="Button-and-Links/Secondary-Button/_default" transform="translate(66.500000, 37.000000)">
            <rect id="bg" stroke="#00427A" stroke-width="2" x="1" y="1" width="105" height="38"></rect>
            <path d="M18.085,26 L18.085,21.824 L19.759,21.824 L21.793,26 L24.475,26 L24.475,25.838 L22.099,21.302 C23.287,20.636 23.989,19.358 23.989,17.702 C23.989,15.128 22.387,13.4 19.993,13.4 L15.529,13.4 L15.529,26 L18.085,26 Z M19.975,19.61 L18.049,19.61 L18.049,15.74 L19.975,15.74 C20.911,15.74 21.523,16.496 21.523,17.648 C21.523,18.818 20.911,19.61 19.975,19.61 Z M29.371,26.18 C30.379,26.18 31.387,25.892 32.269,25.406 L32.017,23.624 C31.261,23.948 30.307,24.2 29.461,24.2 C28.327,24.2 27.625,23.66 27.499,22.4 L32.341,22.4 C32.935,19.268 31.801,17.144 29.047,17.144 C27.121,17.144 25.105,18.53 25.105,21.554 C25.105,24.452 26.905,26.18 29.371,26.18 Z M30.415,20.852 L27.481,20.852 C27.517,19.7 28.165,18.962 29.065,18.962 C30.037,18.962 30.487,19.682 30.415,20.852 Z M36.085,26.18 C37.003,26.18 38.119,25.748 38.551,24.668 C38.641,26.216 40.081,26.288 41.179,26 L41.161,24.596 C40.459,24.65 40.369,24.218 40.369,23.48 L40.369,20.384 C40.369,17.882 38.731,17.144 36.769,17.144 C35.779,17.144 34.699,17.45 33.925,17.882 L34.357,19.52 C34.825,19.214 35.617,19.016 36.355,19.034 C37.255,19.052 38.065,19.412 38.065,20.312 L38.065,21.23 C37.489,20.924 36.841,20.78 36.229,20.78 C34.663,20.78 33.403,21.698 33.403,23.426 C33.403,25.118 34.483,26.18 36.085,26.18 Z M36.697,24.218 C36.085,24.218 35.725,23.876 35.725,23.3 C35.725,22.598 36.211,22.346 36.715,22.346 C37.183,22.346 37.723,22.526 38.047,22.724 C38.047,23.696 37.435,24.218 36.697,24.218 Z M45.391,26.18 C46.309,26.18 47.263,25.622 47.659,24.542 C47.749,26.324 49.225,26.324 50.305,26.018 L50.323,24.38 C49.66,24.516 49.5428889,24.0258333 49.5319228,23.2582623 L49.531,12.842 L47.155,12.842 L47.155,17.558 C46.597,17.234 46.039,17.144 45.499,17.144 C43.609,17.144 41.989,18.764 41.989,21.662 C41.989,24.38 43.303,26.18 45.391,26.18 Z M45.895,23.948 C45.031,23.948 44.401,23.012 44.401,21.626 C44.401,20.024 45.121,19.286 46.075,19.286 C46.435,19.286 46.831,19.376 47.227,19.682 L47.227,22.004 C47.227,23.066 46.723,23.948 45.895,23.948 Z M57.919,26 L57.919,20.87 C57.919,19.7 58.549,19.16 59.197,19.16 C59.881,19.16 60.349,19.682 60.349,20.816 L60.349,26 L62.689,26 L62.689,20.816 C62.689,19.664 63.247,19.16 63.877,19.16 C64.489,19.16 64.957,19.646 64.957,20.798 L64.957,26 L67.351,26 L67.351,20.798 C67.351,18.692 66.919,17.144 64.795,17.144 C63.823,17.144 62.797,17.666 62.347,18.728 C61.987,17.738 61.339,17.144 60.043,17.144 C59.161,17.144 58.207,17.63 57.793,18.53 C57.793,16.802 55.669,17.054 54.715,17.378 L54.715,18.908 C55.48,18.84 55.5546111,19.1091667 55.5605401,19.8519722 L55.561,26 L57.919,26 Z M72.751,26.18 C75.109,26.18 76.693,24.362 76.693,21.626 C76.693,18.944 75.109,17.144 72.751,17.144 C70.357,17.144 68.755,18.944 68.755,21.626 C68.755,24.362 70.357,26.18 72.751,26.18 Z M72.751,23.984 C71.779,23.984 71.131,23.048 71.131,21.626 C71.131,20.258 71.779,19.358 72.751,19.358 C73.705,19.358 74.335,20.258 74.335,21.626 C74.335,23.048 73.705,23.984 72.751,23.984 Z M80.779,26 L80.779,21.428 C80.779,19.988 81.553,19.34 82.453,19.34 C82.921,19.34 83.425,19.502 83.731,19.736 L84.415,17.792 C83.965,17.378 83.299,17.126 82.741,17.144 C81.859,17.144 81.085,17.63 80.707,18.53 C80.581,16.982 78.655,17.018 77.611,17.306 L77.611,18.854 C78.259,18.728 78.457,19.196 78.457,19.916 L78.457,26 L80.779,26 Z M89.041,26.18 C90.049,26.18 91.057,25.892 91.939,25.406 L91.687,23.624 C90.931,23.948 89.977,24.2 89.131,24.2 C87.997,24.2 87.295,23.66 87.169,22.4 L92.011,22.4 C92.605,19.268 91.471,17.144 88.717,17.144 C86.791,17.144 84.775,18.53 84.775,21.554 C84.775,24.452 86.575,26.18 89.041,26.18 Z M90.085,20.852 L87.151,20.852 C87.187,19.7 87.835,18.962 88.735,18.962 C89.707,18.962 90.157,19.682 90.085,20.852 Z" id="Readmore" fill="#00427A" fill-rule="nonzero"></path>
        </g>
    </g>
</svg>