<?xml version="1.0" encoding="UTF-8"?>
<svg width="240px" height="120px" viewBox="0 0 240 120" version="1.1" xmlns="http://www.w3.org/2000/svg" xmlns:xlink="http://www.w3.org/1999/xlink">
    <!-- Generator: Sketch 61 (89581) - https://sketch.com -->
    <title>shortcut</title>
    <desc>Created with Sketch.</desc>
    <g id="Gladdesign" stroke="none" stroke-width="1" fill="none" fill-rule="evenodd">
        <g id="sidlayout-Component-landing" transform="translate(-427.000000, -1322.000000)">
            <g id="shortcut" transform="translate(427.000000, 1322.000000)">
                <g id="Group">
                    <g id="Organisms/Callout/Smaller-Copy-2">
                        <rect id="Background" stroke="#F3F3F3" stroke-width="2" fill="#F3F3F3" x="1" y="1" width="238" height="118"></rect>
                        <g id="Group-3" transform="translate(26.883817, 25.000000)">
                            <rect id="Rectangle-Copy" fill="#FFFFFF" x="0" y="0" width="178.257261" height="18"></rect>
                            <rect id="Rectangle-Copy" fill="#DCDDDE" x="-1.77635684e-12" y="49" width="178.257261" height="2"></rect>
                            <rect id="Rectangle-Copy" fill="#DCDDDE" x="0" y="35" width="93" height="4"></rect>
                            <rect id="Rectangle-Copy-4" fill="#DCDDDE" x="0" y="59" width="178.257261" height="2"></rect>
                            <rect id="Rectangle-Copy-5" fill="#DCDDDE" x="0" y="69" width="48.7966805" height="2"></rect>
                            <rect id="Rectangle-Copy-7" fill="#00427A" x="25.9128631" y="8" width="70" height="2"></rect>
                            <circle id="Oval" stroke="#00427A" stroke-width="2" cx="12.1161826" cy="9" r="4"></circle>
                            <g id="Icons/special/right-arrow-21x12" transform="translate(150.116183, 3.000000)" fill="#00427A">
                                <g id="outlines">
                                    <g transform="translate(0.000000, 1.000000)">
                                        <path d="M15.2071068,-0.707106781 L20.9142136,5 L15.2071068,10.7071068 L13.7928932,9.29289322 L17.085,5.99989322 L-1.70530257e-13,6 L-1.70530257e-13,4 L17.085,3.99989322 L13.7928932,0.707106781 L15.2071068,-0.707106781 Z" id="Combined-Shape"></path>
                                    </g>
                                </g>
                            </g>
                        </g>
                    </g>
                </g>
            </g>
        </g>
    </g>
</svg>