<?xml version="1.0" encoding="UTF-8"?>
<svg width="240px" height="120px" viewBox="0 0 240 120" version="1.1" xmlns="http://www.w3.org/2000/svg" xmlns:xlink="http://www.w3.org/1999/xlink">
    <!-- Generator: Sketch 64 (93537) - https://sketch.com -->
    <title>component/typo</title>
    <desc>Created with Sketch.</desc>
    <g id="component/typo" stroke="none" stroke-width="1" fill="none" fill-rule="evenodd">
        <path d="M40.08,102 L40.08,99.84 C33.36,98.28 31.08,97.8 31.08,95.64 C31.08,94.68 31.56,93.48 32.16,91.8 L37.56,77.16 L65.4,77.16 L71.16,90.84 C72.12,93.12 72.84,94.56 72.84,95.64 C72.84,97.44 70.92,98.16 64.56,99.84 L64.56,102 L103.56,102 L103.56,99.84 C95.88,98.04 94.2,97.32 91.8,91.56 L60.96,18 L54,18 C54,18 29.64,82.68 26.16,91.44 C23.76,97.44 22.68,97.56 15,99.84 L15,102 L40.08,102 Z M62.88,71.16 L39.84,71.16 L50.4,42.48 L50.76,42.48 L62.88,71.16 Z M142.2,103.32 C155.4,103.32 163.8,97.44 163.8,68.76 C163.8,49.8 158.16,39.72 142.08,39.72 C135.72,39.72 130.32,41.52 123.72,44.88 L123.72,15.6 L97.92,15.6 L97.92,17.76 C106.68,20.04 106.92,20.4 106.92,26.04 L106.92,103.2 L122.88,98.76 C128.04,101.28 136.32,103.32 142.2,103.32 Z M136.56,95.04 C132.6,95.04 128.76,94.8 123.72,94.2 L123.72,48.84 C127.56,48.36 132.12,48 134.04,48 C144.84,48 145.8,49.08 145.8,72.96 C145.8,92.04 143.88,95.04 136.56,95.04 Z M198.96,103.2 C206.52,103.2 215.28,102 222.6,95.4 L222.6,94.2 L206.16,94.2 C190.1664,94.2 189.616032,90.973056 189.600415,69.8365728 L189.6,68.52 C189.6,51.24 191.04,47.88 198.72,47.88 C205.44,47.88 208.8,47.88 215.64,48.24 L215.64,48.6 C207.72,49.2 207.36,52.44 207.36,55.56 C207.36,61.2 210.24,63.84 215.52,63.84 C221.76,63.84 224.04,61.68 224.04,55.2 C224.04,46.68 213.84,39.6 199.32,39.6 C185.64,39.6 171.6,43.68 171.6,70.92 C171.6,92.64 179.52,103.2 198.96,103.2 Z" id="Abc" fill="#005AA0" fill-rule="nonzero"></path>
    </g>
</svg>