<?xml version="1.0" encoding="UTF-8"?>
<svg width="240px" height="120px" viewBox="0 0 240 120" version="1.1" xmlns="http://www.w3.org/2000/svg" xmlns:xlink="http://www.w3.org/1999/xlink">
    <!-- Generator: Sketch 61 (89581) - https://sketch.com -->
    <title>value box</title>
    <desc>Created with Sketch.</desc>
    <g id="Gladdesign" stroke="none" stroke-width="1" fill="none" fill-rule="evenodd">
        <g id="sidlayout-Component-landing-micro-interactions-Copy" transform="translate(-426.000000, -1192.000000)">
            <g id="value-box" transform="translate(426.000000, 1192.000000)">
                <rect id="Background" stroke="#F3F3F3" stroke-width="2" fill="#F3F3F3" x="1" y="1" width="238" height="118"></rect>
                <rect id="Rectangle-Copy" fill="#DCDDDE" x="28" y="85" width="181" height="2"></rect>
                <rect id="Rectangle-Copy-3" fill="#DCDDDE" x="28" y="97" width="181" height="2"></rect>
                <polygon id="Rectangle-Copy-8" fill="#D5D5D5" points="28 69 91 69 91 73 28 73"></polygon>
                <rect id="Rectangle-Copy" fill="#DCDDDE" x="114" y="39" width="95" height="2"></rect>
                <rect id="Rectangle-Copy-3" fill="#DCDDDE" x="114" y="51" width="95" height="2"></rect>
                <polygon id="Rectangle-Copy-8" fill="#D5D5D5" points="114 23 164 23 164 27 114 27"></polygon>
                <g id="Group" transform="translate(28.000000, 23.000000)">
                    <polygon id="Rectangle-Copy" fill="#FFFFFF" points="7.76936328e-12 0 63 0 63 30 7.76936328e-12 30"></polygon>
                    <polygon id="Rectangle-Copy-7" fill="#005AA0" points="17 7 45 7 45 9 17 9"></polygon>
                    <polygon id="Rectangle-Copy-7" fill="#005AA0" points="0 28 63 28 63 30 0 30"></polygon>
                    <polygon id="Rectangle-Copy-8" fill="#005AA0" points="7 15 45 15 45 21 7 21"></polygon>
                    <polygon id="Rectangle-Copy-10" fill="#005AA0" points="47 15 55 15 55 21 47 21"></polygon>
                </g>
            </g>
        </g>
    </g>
</svg>