<?xml version="1.0" encoding="UTF-8"?>
<svg width="70px" height="70px" viewBox="0 0 70 70" version="1.1" xmlns="http://www.w3.org/2000/svg" xmlns:xlink="http://www.w3.org/1999/xlink">
    <!-- Generator: Sketch 64 (93537) - https://sketch.com -->
    <title>icon/visual</title>
    <desc>Created with Sketch.</desc>
    <g id="icon/visual" stroke="none" stroke-width="1" fill="none" fill-rule="evenodd">
        <rect id="Rectangle" x="0" y="0" width="70" height="70"></rect>
        <g id="lines" transform="translate(11.000000, 7.000000)">
            <path d="M42.82285,5.98171 C42.82285,6.67471 42.26075,7.23681 41.56775,7.23681 C40.87405,7.23681 40.31195,6.67471 40.31195,5.98171 C40.31195,5.28801 40.87405,4.72591 41.56775,4.72591 C42.26075,4.72591 42.82285,5.28801 42.82285,5.98171" id="Fill-1" fill="#222222"></path>
            <polyline id="Stroke-3" stroke="#222222" stroke-width="2" points="29.29626 18.43744 44.60526 18.43744 44.60526 55.09924 4.09556 55.09924 4.09556 18.43744 14.65156 18.43744"></polyline>
            <path d="M48.3504,17.38471 C48.3504,30.63991 37.6054,41.38491 24.3502,41.38491 C11.095,41.38491 0.35,30.63991 0.35,17.38471" id="Stroke-5" stroke="#222222" stroke-width="2"></path>
            <path d="M40.15242,18.43744 L45.36392,8.12224 C45.95542,6.95184 46.02402,5.58614 45.55222,4.36324 L43.88062,0.02254 L39.65752,1.97204 C38.46682,2.52154 37.56452,3.54914 37.17392,4.80074 L33.05162,17.99924" id="Stroke-7" stroke="#222222" stroke-width="2"></path>
            <path d="M19.02901,28.35469 L19.02901,25.32019 C19.02901,24.35559 19.81091,23.57369 20.77551,23.57369 C21.74011,23.57369 22.52201,24.35559 22.52201,25.32019 L22.52201,26.25469" id="Stroke-11" stroke="#222222" stroke-width="2"></path>
            <path d="M19.02901,28.35469 L19.02901,30.46029 C19.02901,32.08849 17.70881,33.40869 16.08061,33.40869 C14.45171,33.40869 13.13221,32.08849 13.13221,30.46029 L13.13221,23.57369 L13.13221,18.43779 L16.08061,18.43779 L23.69591,18.43779 L26.01431,18.43779 L26.01431,27.18919 C26.01431,28.15379 25.23241,28.93569 24.26781,28.93569 C23.30391,28.93569 22.52201,28.15379 22.52201,27.18919 L22.52201,26.25469" id="Stroke-9" stroke="#222222" stroke-width="2"></path>
        </g>
    </g>
</svg>