<?xml version="1.0" encoding="UTF-8"?>
<svg width="52px" height="52px" viewBox="0 0 52 52" version="1.1" xmlns="http://www.w3.org/2000/svg" xmlns:xlink="http://www.w3.org/1999/xlink">
    <!-- Generator: Sketch 63.1 (92452) - https://sketch.com -->
    <title>Icons/40px/wristwatch-40</title>
    <desc>Created with Sketch.</desc>
    <defs>
        <path d="M26,0 C40.3594035,0 52,11.6405965 52,26 C52,40.3594035 40.3594035,52 26,52 C11.6405965,52 0,40.3594035 0,26 C0,11.6405965 11.6405965,0 26,0 Z M26,2 C25.8145662,2 25.6296236,2.00210301 25.4451947,2.00628649 L25.4450668,5.723021 L18.0710803,8.66786421 L16.2726158,11.483801 L17.2167544,13.1103423 L20.567675,11.6988801 L25.8197738,11.6988801 L25.8197738,13.6988801 L20.9717017,13.6988801 L16.3707785,15.6368637 L13.9312537,11.4341036 L16.7318312,7.04911326 L23.4450668,4.36814466 L23.4448814,2.13440886 C17.8212256,2.72955027 12.7770583,5.26693444 8.99578222,9.06315874 L10.7091567,14.7003224 L7.22197541,22.4226694 L2.12140661,23.5709103 C2.04111871,24.3697034 2,25.1800498 2,26 C2,26.8600229 2.04523604,27.7094805 2.13345858,28.546123 L4.86769334,27.6265329 L9.0111559,30.0652358 L13.2268489,31.9913585 L13.2268489,36.1752377 L11.4779456,40.0228269 L11.4774115,45.1090649 C15.5093751,48.1780126 20.5419136,50 26,50 C39.254834,50 50,39.254834 50,26 C50,25.8376618 49.9983882,25.6757 49.9951798,25.5141298 L49.8562156,25.6345329 L43.8513899,18.7062586 L42.7376555,19.1035443 L42.0740066,20.7498085 L37.5105688,22.5116277 L34.4592006,16.4206111 L29.2589526,13.8246507 L30.1522335,12.0352236 L35.9488293,14.9288805 L38.4850287,19.9915382 L40.5436896,19.1967452 L41.2188674,17.5218822 L44.4672321,16.3631421 L49.7382374,22.4430681 C48.0196225,10.8749891 38.0462436,2 26,2 Z M27.9352302,16.5676749 L32.559344,18.8095065 L35.4193219,25.2338974 L40.1572609,27.1739116 L35.6689819,32.7371122 L35.6689819,37.3194408 L32.6798033,40.147769 L31.7559124,43.3556653 L25.9261959,45.4869246 L22.994175,36.8872488 L24.0102464,33.9380296 L21.9938486,31.3696981 L21.9938486,30.0477824 L20.5856926,30.4122878 L15.7687864,30.4122878 L13.0267321,21.7195647 L15.6083311,19.726277 L18.0775074,17.0425141 L19.5493382,18.3966611 L17.0226375,21.1429476 L16.8978655,21.257394 L15.3540872,22.4493662 L17.2350461,28.4122878 L20.3310363,28.4122878 L23.9938486,27.464158 L23.9938486,30.6783971 L26.2559583,33.5596973 L25.1083774,36.8906322 L27.1594904,42.9065876 L30.1151581,41.8260386 L30.9089161,39.0699843 L33.6689819,36.4584401 L33.6689819,32.0309192 L36.915003,28.0074914 L33.9186419,26.7805903 L31.0293754,20.290408 L28.1026653,18.8715002 L26.5158912,19.9489914 L22.6773323,18.6681747 L23.3103648,16.7710005 L26.2106504,17.7387424 L27.9352302,16.5676749 Z M4.63994789,29.8131881 L2.43193133,30.5562702 C3.39536092,35.5694643 5.9186262,40.0278481 9.47693791,43.4066324 L9.47794562,39.5896087 L11.2268489,35.7420195 L11.2268489,33.2764364 L8.13294619,31.8628524 L8.04128622,31.8151016 L4.63994789,29.8131881 Z M39.4003409,33.88251 L39.4003409,37.9872041 L37.7636634,41.4497186 L36.1269859,40.1744605 L37.0440316,37.349575 L39.4003409,33.88251 Z M2.43020553,21.4527192 L5.80957667,20.6907945 L8.57694041,14.5624801 L7.43086615,10.794031 C4.95121292,13.8185512 3.19597343,17.4597999 2.43020553,21.4527192 Z" id="path-1"></path>
    </defs>
    <g id="Gladdesign" stroke="none" stroke-width="1" fill="none" fill-rule="evenodd">
        <g id="sidlayout-Component-landing-page-data-Copy-3" transform="translate(-237.000000, -735.000000)">
            <g id="one" transform="translate(74.000000, 692.000000)">
                <g id="Icons/70px/world-70" transform="translate(154.000000, 34.000000)">
                    <g>
                        <rect id="invisible-70" x="0" y="0" width="70" height="70"></rect>
                        <g id="outlines" transform="translate(9.000000, 9.000000)">
                            <mask id="mask-2" fill="white">
                                <use xlink:href="#path-1"></use>
                            </mask>
                            <use id="Combined-Shape" fill="#005AA0" xlink:href="#path-1"></use>
                        </g>
                    </g>
                </g>
            </g>
        </g>
    </g>
</svg>