<?xml version="1.0" encoding="UTF-8"?>
<svg width="240px" height="120px" viewBox="0 0 240 120" version="1.1" xmlns="http://www.w3.org/2000/svg" xmlns:xlink="http://www.w3.org/1999/xlink">
    <!-- Generator: Sketch 64 (93537) - https://sketch.com -->
    <title>component/nobg</title>
    <desc>Created with Sketch.</desc>
    <g id="component/nobg" stroke="none" stroke-width="1" fill="none" fill-rule="evenodd">
        <g id="Icons/70px/bike-70" transform="translate(85.000000, 34.000000)">
            <g>
                <rect id="invisible-70" x="0" y="0" width="70" height="70"></rect>
                <g id="outlines" transform="translate(4.000000, 15.000000)" fill="#222222">
                    <path d="M12.5,16 L12.5,18 C6.70101013,18 2,22.7010101 2,28.5 C2,34.2989899 6.70101013,39 12.5,39 C18.2989899,39 23,34.2989899 23,28.5 C23,25.5554013 21.7830374,22.807994 19.675592,20.8343822 L21.0426932,19.3745758 C23.5498242,21.7224913 25,24.9963992 25,28.5 C25,35.4035594 19.4035594,41 12.5,41 C5.59644063,41 0,35.4035594 0,28.5 C0,21.5964406 5.59644063,16 12.5,16 Z M48.6272487,16 C55.4630366,16 61,21.598916 61,28.5 C61,35.401084 55.4630366,41 48.6272487,41 C43.4512289,41 38.8792882,37.7596185 37.0645621,32.9573364 L38.9354379,32.2503543 C40.459387,36.2831577 44.2926523,39 48.6272487,39 C54.353455,39 59,34.3014653 59,28.5 C59,22.6985347 54.353455,18 48.6272487,18 C48.2376906,18 47.8509778,18.0216925 47.4682173,18.0647238 L47.2447775,16.0772443 C47.7016868,16.0258769 48.1629959,16 48.6272487,16 Z M32,7.28306304e-14 L32,2 L25.2614673,2 L21.946,9.625 L32.711,26.594 L37.635,11 L25.25,11 L25.25,9 L39.7195224,9 L51.6820224,31 L33.1376319,31 L20.983,11.841 L12.917104,30.398648 L11.082896,29.601352 L23.9500523,7.28306304e-14 L32,7.28306304e-14 Z M39.291,12.399 L34.111,28.801 L34.2373681,29 L48.3179776,29 L39.291,12.399 Z M44.3333333,4 C44.8856181,4 45.3333333,4.44771525 45.3333333,5 C45.3333333,5.55228475 44.8856181,6 44.3333333,6 L36.8653967,6 C36.313112,6 35.8653967,5.55228475 35.8653967,5 C35.8653967,4.44771525 36.313112,4 36.8653967,4 L44.3333333,4 Z" id="Combined-Shape"></path>
                </g>
            </g>
        </g>
    </g>
</svg>