<?xml version="1.0" encoding="UTF-8"?>
<svg width="240px" height="120px" viewBox="0 0 240 120" version="1.1" xmlns="http://www.w3.org/2000/svg" xmlns:xlink="http://www.w3.org/1999/xlink">
    <!-- Generator: Sketch 64 (93537) - https://sketch.com -->
    <title>component/accessibility_nobg</title>
    <desc>Created with Sketch.</desc>
    <defs>
        <path d="M16.4444444,24.3698007 L16.4444444,21 L18.4444444,21 L18.4444444,29.6301993 L12.5509339,23 L10.5,23 C5.80557963,23 2,19.1944204 2,14.5 C2,9.80557963 5.80557963,6 10.5,6 L21.5,6 C26.1944204,6 30,9.80557963 30,14.5 C30,19.1944204 26.1944204,23 21.5,23 L20,23 L20,21 L21.5,21 C25.0898509,21 28,18.0898509 28,14.5 C28,10.9101491 25.0898509,8 21.5,8 L10.5,8 C6.91014913,8 4,10.9101491 4,14.5 C4,18.0898509 6.91014913,21 10.5,21 L13.4490661,21 L16.4444444,24.3698007 Z" id="path-1"></path>
        <path d="M13,0 C16.6822605,0 20.119674,1.54035142 22.565217,4.19612097 L21.093972,5.55090445 C19.0232633,3.30219111 16.117323,2 13,2 C6.92486775,2 2,6.92486775 2,13 C2,19.0751322 6.92486775,24 13,24 C19.0751322,24 24,19.0751322 24,13 C24,11.8079539 23.8106675,10.6433532 23.4444254,9.53794044 L15,9.53794044 C11.8577265,9.53794044 8.48428028,7.72172451 7.55688087,5.19104286 L9.43475751,4.50287187 C10.0367104,6.14547721 12.6230769,7.53794044 15,7.53794044 L24.8195361,7.53794044 L25.0712266,8.16590856 C25.6821394,9.69013682 26,11.3238331 26,13 C26,20.1797017 20.1797017,26 13,26 C5.82029825,26 0,20.1797017 0,13 C0,5.82029825 5.82029825,0 13,0 Z M17.253817,17.2314351 L18.6717289,18.6419406 C17.1805656,20.1409338 15.1570987,21 13,21 C10.847319,21 8.8276367,20.1444645 7.33719122,18.6508935 L8.75288527,17.238162 C9.87186056,18.3594838 11.3839419,19 13,19 C14.6193691,19 16.1342947,18.3568358 17.253817,17.2314351 Z M18,10 C19.6568542,10 21,11.3431458 21,13 L19,13 C19,12.4477153 18.5522847,12 18,12 C17.4477153,12 17,12.4477153 17,13 L15,13 C15,11.3431458 16.3431458,10 18,10 Z M8,10 C9.65685425,10 11,11.3431458 11,13 L9,13 C9,12.4477153 8.55228475,12 8,12 C7.44771525,12 7,12.4477153 7,13 L5,13 C5,11.3431458 6.34314575,10 8,10 Z" id="path-3"></path>
    </defs>
    <g id="component/accessibility_nobg" stroke="none" stroke-width="1" fill="none" fill-rule="evenodd">
        <g id="Group" transform="translate(86.000000, 35.000000)">
            <g id="Icons/32px/chat-32" transform="translate(0.000000, 36.000000)">
                <g id="Outlines">
                    <g>
                        <rect id="invisible-32" x="0" y="0" width="32" height="32"></rect>
                        <mask id="mask-2" fill="white">
                            <use xlink:href="#path-1"></use>
                        </mask>
                        <use id="Rectangle" fill="#222222" xlink:href="#path-1"></use>
                    </g>
                </g>
            </g>
            <g id="Icons/32px/eye-32" transform="translate(36.000000, 0.000000)">
                <g>
                    <rect id="invisible-32" x="0" y="0" width="32" height="32"></rect>
                    <g id="outlines" transform="translate(1.000000, 6.000000)" fill="#222222">
                        <path d="M14.9935773,0 C21.161342,0 25.8346313,3.22802254 28.8997546,9.54764545 L29.1110393,9.98326889 L28.9003608,10.4191858 C25.8356183,16.7604719 21.1622747,20 14.9935773,20 C8.82450909,20 4.15512793,16.7600188 1.09913697,10.418145 L0.889581885,9.98327073 L1.09974054,9.5486878 C4.15611325,3.22847512 8.82544171,0 14.9935773,0 Z M14.9935773,2 C9.7688535,2 5.84474876,4.61949189 3.11577008,9.98484471 C5.8451246,15.3708307 9.76935845,18 14.9935773,18 C20.2178349,18 24.1462818,15.3707252 26.8835829,9.98484658 C24.1466579,4.61959746 20.2183394,2 14.9935773,2 Z M15,3 C18.8659932,3 22,6.13400675 22,10 C22,13.8659932 18.8659932,17 15,17 C11.1340068,17 8,13.8659932 8,10 C8,6.13400675 11.1340068,3 15,3 Z M15,5 C12.2385763,5 10,7.23857625 10,10 C10,12.7614237 12.2385763,15 15,15 C17.7614237,15 20,12.7614237 20,10 C20,7.23857625 17.7614237,5 15,5 Z M15,8 C16.1045695,8 17,8.8954305 17,10 C17,11.1045695 16.1045695,12 15,12 C13.8954305,12 13,11.1045695 13,10 L13,10 L15,10 Z" id="Combined-Shape"></path>
                    </g>
                </g>
            </g>
            <g id="Icons/32px/user-happy-32" transform="translate(36.000000, 36.000000)">
                <g>
                    <rect id="invisible-32" x="0" y="0" width="32" height="32"></rect>
                    <g id="outlines" transform="translate(3.000000, 3.000000)">
                        <mask id="mask-4" fill="white">
                            <use xlink:href="#path-3"></use>
                        </mask>
                        <use id="Combined-Shape" fill="#222222" xlink:href="#path-3"></use>
                    </g>
                </g>
            </g>
            <g id="Icons/32px/hand-32">
                <rect id="invisible-32" x="0" y="0" width="32" height="32"></rect>
                <g id="lines-(v2)" transform="translate(5.000000, 3.000000)" fill="#222222" fill-rule="nonzero">
                    <path d="M15,13 L13,13 L13,9 L12,9 L12,14 L10,14 L10,3 C10,2.37037037 9.10802469,2.33539095 9.00891632,2.89506173 L9,3 L9,16.592224 L7.56574249,15.9007888 C5.71354099,15.0078687 4.30419593,14.4010529 3.35286226,14.0839417 C3.16843708,14.0224666 3.00449097,13.9730995 2.8629657,13.9355881 L2.724,13.901 L2.69910593,13.9906377 L2.67376995,14.1100518 L2.66017406,14.2163394 C2.65936097,14.2270105 2.6580535,14.2341438 2.65598888,14.2383366 L7.62469505,18.2191312 L7.69642249,18.2888234 C7.92238019,18.5088838 8.32825084,19.0020571 9.26620752,20.1818933 L10.4312189,21.652222 L10.431,24 L15.999,24 L16,21.6327222 L19,18.098 L19.0001253,11.9999046 L18.9955038,12.0050692 L18.9484754,11.9999254 L18.0000787,12 L18,13 L16,13 L16,10 L14.9996871,10 L15,13 Z M18.948377,9.9999254 C20.0195404,9.99990426 20.9152204,10.8052123 20.9944327,11.8492009 L21.0001253,11.9999046 L21.0001253,18.8339444 L17.999,22.368 L18,26 L8.43121891,26 L8.431,22.348 L7.1262013,20.7105654 L6.50069653,19.942908 L6.33,19.744 L1.399,15.799 L1.32913883,15.7514994 C0.427045161,15.0789065 0.487693853,13.9736418 1.01439045,12.7543369 L1.09274959,12.5794091 C1.67130433,11.3314172 3.10072342,11.6215946 6.68875046,13.2736986 L6.999,13.417 L7,3 C7,-0.270440252 11.8131007,-0.332146671 11.9947272,2.81488074 L12,3 L12,7 L13,7 C13.7404864,7 14.3869825,7.40242038 14.7327215,8.00049436 L16,8 C17.0543618,8 17.9181651,8.81587779 17.9945143,9.85073766 L18,10 L18.948377,9.9999254 Z" id="Combined-Shape"></path>
                </g>
            </g>
        </g>
    </g>
</svg>