<?xml version="1.0" encoding="UTF-8"?>
<svg width="240px" height="120px" viewBox="0 0 240 120" version="1.1" xmlns="http://www.w3.org/2000/svg" xmlns:xlink="http://www.w3.org/1999/xlink">
    <!-- Generator: Sketch 61 (89581) - https://sketch.com -->
    <title>breadcrumb</title>
    <desc>Created with Sketch.</desc>
    <g id="Gladdesign" stroke="none" stroke-width="1" fill="none" fill-rule="evenodd">
        <g id="sidlayout-Component-landing-page-navigations-Copy" transform="translate(-426.000000, -482.000000)">
            <g id="breadcrumb" transform="translate(426.000000, 482.000000)">
                <rect id="Background" stroke="#F3F3F3" stroke-width="2" fill="#FFFFFF" x="1" y="1" width="238" height="118"></rect>
                <g id="Group-3" transform="translate(28.000000, 13.000000)">
                    <rect id="Rectangle-Copy" fill="#DCDDDE" x="0" y="30" width="62" height="4"></rect>
                    <rect id="Rectangle-Copy-3" fill="#DCDDDE" x="0" y="44" width="178.257261" height="2"></rect>
                    <rect id="Rectangle-Copy-4" fill="#DCDDDE" x="0" y="54" width="178.257261" height="2"></rect>
                    <rect id="Rectangle-Copy" fill="#DCDDDE" x="0" y="64" width="178.257261" height="2"></rect>
                    <rect id="Rectangle-Copy-4" fill="#DCDDDE" x="0" y="74" width="178.257261" height="2"></rect>
                    <rect id="Rectangle-Copy-5" fill="#DCDDDE" x="0" y="84" width="48.7966805" height="2"></rect>
                    <rect id="Rectangle-Copy-7" fill="#005AA0" x="0.116182573" y="7" width="24" height="2"></rect>
                    <rect id="Rectangle-Copy-8" fill="#005AA0" x="0.116182573" y="11" width="24" height="2"></rect>
                    <rect id="Rectangle-Copy-7" fill="#005AA0" x="39.1161826" y="7" width="26" height="2"></rect>
                    <rect id="Rectangle-Copy-8" fill="#005AA0" x="39.1161826" y="11" width="26" height="2"></rect>
                    <polygon id="Rectangle-Copy-7" fill="#DCDDDE" points="78.1161826 7 108.116183 7 108.116183 9 78.1161826 9"></polygon>
                    <g id="Icons/special/breadcrumb-item" transform="translate(28.000000, 0.000000)" fill="#E5E5E5">
                        <g id="outlines">
                            <g transform="translate(0.000000, 3.000000)">
                                <polygon id="Path" points="3.93933983 5 0.469669914 1.53033009 1.53033009 0.469669914 6.06066017 5 1.53033009 9.53033009 0.469669914 8.46966991"></polygon>
                            </g>
                        </g>
                    </g>
                    <g id="Icons/special/breadcrumb-item" transform="translate(69.000000, 0.000000)" fill="#E5E5E5">
                        <g id="outlines">
                            <g transform="translate(0.000000, 3.000000)">
                                <polygon id="Path" points="3.93933983 5 0.469669914 1.53033009 1.53033009 0.469669914 6.06066017 5 1.53033009 9.53033009 0.469669914 8.46966991"></polygon>
                            </g>
                        </g>
                    </g>
                </g>
            </g>
        </g>
    </g>
</svg>