<?xml version="1.0" encoding="UTF-8"?>
<svg width="240px" height="120px" viewBox="0 0 240 120" version="1.1" xmlns="http://www.w3.org/2000/svg" xmlns:xlink="http://www.w3.org/1999/xlink">
    <!-- Generator: Sketch 61 (89581) - https://sketch.com -->
    <title>collapse</title>
    <desc>Created with Sketch.</desc>
    <defs>
        <polygon id="path-1" points="6 3.41421356 1.70710678 7.70710678 0.292893219 6.29289322 6 0.585786438 11.7071068 6.29289322 10.2928932 7.70710678"></polygon>
    </defs>
    <g id="Gladdesign" stroke="none" stroke-width="1" fill="none" fill-rule="evenodd">
        <g id="sidlayout-Component-landing-micro-interactions" transform="translate(-426.000000, -482.000000)">
            <g id="collapse" transform="translate(426.000000, 482.000000)">
                <rect id="Background" stroke="#F3F3F3" stroke-width="2" fill="#FFFFFF" x="1" y="1" width="238" height="118"></rect>
                <rect id="Rectangle-Copy" fill="#DCDDDE" x="28" y="43" width="181" height="2"></rect>
                <rect id="Rectangle-Copy-3" fill="#DCDDDE" x="28" y="55" width="181" height="2"></rect>
                <rect id="Rectangle-Copy-6" fill="#DCDDDE" x="28" y="67" width="181" height="2"></rect>
                <polygon id="Rectangle-Copy-5" fill="#DCDDDE" points="28 79 74 79 74 81 28 81"></polygon>
                <polygon id="Rectangle-Copy-8" fill="#D5D5D5" points="28 27 123 27 123 31 28 31"></polygon>
                <rect id="Rectangle-Copy-7" fill="#005AA0" x="28" y="91" width="46" height="2"></rect>
                <g id="Icons/20px/chevron-down-20" transform="translate(75.000000, 80.000000)">
                    <g>
                        <rect id="invisible-20" x="0" y="0" width="20" height="20"></rect>
                        <g id="outlines" transform="translate(10.000000, 11.000000) scale(1, -1) translate(-10.000000, -11.000000) translate(4.000000, 7.000000)">
                            <mask id="mask-2" fill="white">
                                <use xlink:href="#path-1"></use>
                            </mask>
                            <use id="Path-3" fill="#005AA0" xlink:href="#path-1"></use>
                        </g>
                    </g>
                </g>
            </g>
        </g>
    </g>
</svg>