<?xml version="1.0" encoding="UTF-8"?>
<svg width="240px" height="120px" viewBox="0 0 240 120" version="1.1" xmlns="http://www.w3.org/2000/svg" xmlns:xlink="http://www.w3.org/1999/xlink">
    <!-- Generator: Sketch 64 (93537) - https://sketch.com -->
    <title>component/nobg</title>
    <desc>Created with Sketch.</desc>
    <defs>
        <path d="M47,6 L47,8 L13,8 L13,62 L51,62 L51,37 L53,37 L53,64 L11,64 L11,6 L47,6 Z M52.2,8.58578644 L62.4142136,18.8 L37.2142136,44 L27,44 L27,33.7857864 L52.2,8.58578644 Z M29,36.415 L29,42 L34.584,41.999 L29,36.415 Z M46.6,17.015 L29.515,34.1 L36.9,41.485 L53.985,24.4 L46.6,17.015 Z M50.2928932,23.2928932 L51.7071068,24.7071068 L37.7071068,38.7071068 L36.2928932,37.2928932 L50.2928932,23.2928932 Z M52.2,11.4142136 L48.015,15.6 L55.4,22.985 L59.5857864,18.8 L52.2,11.4142136 Z" id="path-1"></path>
    </defs>
    <g id="component/nobg" stroke="none" stroke-width="1" fill="none" fill-rule="evenodd">
        <g id="Icons/70px/pencil-70" transform="translate(85.000000, 34.000000)">
            <g id="outlines">
                <g>
                    <rect id="invisible-70" x="0" y="0" width="70" height="70"></rect>
                    <mask id="mask-2" fill="white">
                        <use xlink:href="#path-1"></use>
                    </mask>
                    <use id="Combined-Shape" fill="#222222" xlink:href="#path-1"></use>
                </g>
            </g>
        </g>
    </g>
</svg>