<?xml version="1.0" encoding="UTF-8"?>
<svg width="102px" height="84px" viewBox="0 0 102 84" version="1.1" xmlns="http://www.w3.org/2000/svg" xmlns:xlink="http://www.w3.org/1999/xlink">
    <!-- Generator: Sketch 64 (93537) - https://sketch.com -->
    <title>people/family1 copy</title>
    <desc>Created with Sketch.</desc>
    <g id="-designsssssssss" stroke="none" stroke-width="1" fill="none" fill-rule="evenodd">
        <g id="sidlayout-graphic" transform="translate(-1172.000000, -1416.000000)">
            <g id="Group-26" transform="translate(452.000000, 1292.000000)">
                <g id="misc/lego" transform="translate(681.000000, 86.000000)">
                    <g id="invisible-copy-16" opacity="0.98999995">
                        <polygon id="Fill-1-Copy-18" points="0 156 180 156 180 0 0 0"></polygon>
                    </g>
                    <g id="outlines" transform="translate(40.000000, 39.000000)">
                        <polygon id="Stroke-1" fill="#005AA0" fill-rule="nonzero" points="42.1376312 4.01545541 53.6936312 8.04545541 52.7057688 10.8781446 41.1497688 6.84814459"></polygon>
                        <polygon id="Stroke-2" fill="#005AA0" fill-rule="nonzero" points="65.2921789 12.0913372 77.2481789 16.2603372 76.2604211 19.0930628 64.3044211 14.9240628"></polygon>
                        <polygon id="Stroke-3" fill="#005AA0" fill-rule="nonzero" points="-0.9997 24.7961946 27.7569943 -1.00032833 30.7693178 0.0503856061 29.7812822 2.88301439 28.441 2.415 2 26.134 2 54.826 70.602 78.751 97.044 55.032 97.044 26.341 88.5993567 23.3960404 89.5872433 20.5633596 100.0443 24.2102181 100.0443 56.3712216 71.2866193 82.1676947 -0.9997 56.9571687"></polygon>
                        <polygon id="Stroke-5" fill="#005AA0" fill-rule="nonzero" points="0.993853605 24.0494632 70.602 48.326 97.542267 24.1592288 99.545533 26.3923712 71.2872398 51.7417977 0.00594639532 26.8821368"></polygon>
                        <path d="M33.6732,-0.5443 C28.4776014,-0.5443 24.0862,2.35692051 24.0862,6.2987 C24.0862,10.2404795 28.4776014,13.1417 33.6732,13.1417 C38.8686289,13.1417 43.2592,10.2405324 43.2592,6.2987 C43.2592,2.35686757 38.8686289,-0.5443 33.6732,-0.5443 Z M33.6732,2.4557 C37.4097644,2.4557 40.2592,4.33852799 40.2592,6.2987 C40.2592,8.25887201 37.4097644,10.1417 33.6732,10.1417 C29.9364238,10.1417 27.0862,8.2586729 27.0862,6.2987 C27.0862,4.3387271 29.9364238,2.4557 33.6732,2.4557 Z" id="Stroke-7" fill="#005AA0" fill-rule="nonzero"></path>
                        <path d="M51.0741588,29.3548819 C49.5748052,31.8980412 46.0966368,33.4976 42.2437,33.4976 C37.0482711,33.4976 32.6577,30.5964324 32.6577,26.6546 C32.6577,22.7127676 37.0482711,19.8116 42.2437,19.8116 C47.4392986,19.8116 51.8307,22.7128205 51.8307,26.6546 C51.8307,27.5061059 51.6178295,28.333156 51.2153203,29.1011271 L51.0741588,29.3548819 Z M48.5801327,27.6656773 C48.7477784,27.331778 48.8307,26.9942561 48.8307,26.6546 C48.8307,24.6946271 45.9804762,22.8116 42.2437,22.8116 C38.5071356,22.8116 35.6577,24.694428 35.6577,26.6546 C35.6577,28.614772 38.5071356,30.4976 42.2437,30.4976 C45.0175416,30.4976 47.4170316,29.4380975 48.3907284,27.9885643 L48.4895493,27.8317952 L48.5801327,27.6656773 Z" id="Stroke-9" fill="#005AA0" fill-rule="nonzero"></path>
                        <path d="M67.2461,28.2712 C69.7043761,28.2712 72.0291197,28.9209507 73.7906136,30.0844511 C75.6876168,31.3370178 76.8321,33.1252509 76.8321,35.1142 C76.8321,37.1020595 75.6878464,38.889934 73.7908159,40.1438153 C72.0291197,41.3074493 69.7043761,41.9572 67.2461,41.9572 C64.9239828,41.9572 62.720373,41.3774368 60.999575,40.3327203 L60.7009908,40.1435554 L62.3552092,37.6408446 C63.6069982,38.4682403 65.3566736,38.9572 67.2461,38.9572 C69.1352391,38.9572 70.8840949,38.4684062 72.1369908,37.6408446 C73.2529253,36.9032447 73.8321,35.9982952 73.8321,35.1142 C73.8321,34.2291943 73.2530892,33.324501 72.1373841,32.5878153 C70.8840949,31.7599938 69.1352391,31.2712 67.2461,31.2712 C65.3566736,31.2712 63.6069982,31.7601597 62.3542203,32.5882085 C61.3079297,33.2785888 60.7335821,34.1167261 60.6658758,34.948068 L60.6591,35.1142 L57.6591,35.1142 C57.6591,33.1248789 58.8039932,31.3365514 60.7009908,30.0848446 C62.4615349,28.9211767 64.7873877,28.2712 67.2461,28.2712 Z" id="Stroke-11" fill="#E30613" fill-rule="nonzero"></path>
                        <path d="M27.2958588,21.6068819 C25.7965052,24.1500412 22.3183368,25.7496 18.4654,25.7496 C13.2699711,25.7496 8.8794,22.8484324 8.8794,18.9066 C8.8794,14.9647676 13.2699711,12.0636 18.4654,12.0636 C23.6609986,12.0636 28.0524,14.9648205 28.0524,18.9066 C28.0524,19.7581059 27.8395295,20.585156 27.4370203,21.3531271 L27.2958588,21.6068819 Z M18.4654,15.0636 C14.7288356,15.0636 11.8794,16.946428 11.8794,18.9066 C11.8794,20.866772 14.7288356,22.7496 18.4654,22.7496 C21.2392416,22.7496 23.6387316,21.6900975 24.6124284,20.2405643 L24.7112493,20.0837952 L24.8018327,19.9176773 C24.9694784,19.583778 25.0524,19.2462561 25.0524,18.9066 C25.0524,16.9466271 22.2021762,15.0636 18.4654,15.0636 Z" id="Stroke-13" fill="#005AA0" fill-rule="nonzero"></path>
                        <path d="M56.8183,7.3478 C51.6227014,7.3478 47.2313,10.2490205 47.2313,14.1908 C47.2313,18.1325795 51.6227014,21.0338 56.8183,21.0338 C62.0137289,21.0338 66.4043,18.1326324 66.4043,14.1908 C66.4043,10.2489676 62.0137289,7.3478 56.8183,7.3478 Z M56.8183,10.3478 C60.5548644,10.3478 63.4043,12.230628 63.4043,14.1908 C63.4043,16.150972 60.5548644,18.0338 56.8183,18.0338 C53.0815238,18.0338 50.2313,16.1507729 50.2313,14.1908 C50.2313,12.2308271 53.0815238,10.3478 56.8183,10.3478 Z" id="Stroke-15" fill="#005AA0" fill-rule="nonzero"></path>
                        <path d="M81.1039,15.3039 C75.9083014,15.3039 71.5169,18.2051205 71.5169,22.1469 C71.5169,26.0886795 75.9083014,28.9899 81.1039,28.9899 C86.2993289,28.9899 90.6899,26.0887324 90.6899,22.1469 C90.6899,18.2050676 86.2993289,15.3039 81.1039,15.3039 Z M81.1039,18.3039 C84.8404644,18.3039 87.6899,20.186728 87.6899,22.1469 C87.6899,24.107072 84.8404644,25.9899 81.1039,25.9899 C77.3671238,25.9899 74.5169,24.1068729 74.5169,22.1469 C74.5169,20.1869271 77.3671238,18.3039 81.1039,18.3039 Z" id="Stroke-17" fill="#005AA0" fill-rule="nonzero"></path>
                        <polygon id="Stroke-19" fill="#005AA0" fill-rule="nonzero" points="72.4448 49.6499 72.4448 71.4769 69.4448 71.4769 69.4448 49.6499"></polygon>
                    </g>
                </g>
            </g>
        </g>
    </g>
</svg>