<?xml version="1.0" encoding="UTF-8"?>
<svg width="92px" height="92px" viewBox="0 0 92 92" version="1.1" xmlns="http://www.w3.org/2000/svg" xmlns:xlink="http://www.w3.org/1999/xlink">
    <!-- Generator: Sketch 64 (93537) - https://sketch.com -->
    <title>people/family1</title>
    <desc>Created with Sketch.</desc>
    <g id="-designsssssssss" stroke="none" stroke-width="1" fill="none" fill-rule="evenodd">
        <g id="sidlayout-graphic" transform="translate(-1177.000000, -1091.000000)">
            <g id="Group-27" transform="translate(452.000000, 973.000000)">
                <g id="misc/checkmark" transform="translate(681.000000, 86.000000)">
                    <g id="invisible-copy-16" opacity="0.98999995">
                        <polygon id="Fill-1-Copy-18" points="0 156 180 156 180 0 0 0"></polygon>
                    </g>
                    <g id="lines" transform="translate(46.000000, 34.000000)">
                        <path d="M44,-1.5 C18.8710439,-1.5 -1.5,18.8710439 -1.5,44 C-1.5,69.1289561 18.8710439,89.5 44,89.5 C69.1289561,89.5 89.5,69.1289561 89.5,44 C89.5,18.8710439 69.1289561,-1.5 44,-1.5 Z M44,1.5 C67.4721019,1.5 86.5,20.5278981 86.5,44 C86.5,67.4721019 67.4721019,86.5 44,86.5 C20.5278981,86.5 1.5,67.4721019 1.5,44 C1.5,20.5278981 20.5278981,1.5 44,1.5 Z" id="Oval" fill="#0059A0" fill-rule="nonzero"></path>
                        <path d="M32.9374351,9.07613249 L33.902543,11.9166548 C32.7799343,12.298077 31.6786032,12.7361158 30.6022352,13.228817 C29.7147836,13.6350429 28.8449352,14.0781382 27.9948039,14.5568008 C26.4238732,15.4413064 24.923,16.4457282 23.5054804,17.5602002 C21.9248288,18.8029286 20.452309,20.1789746 19.1051642,21.6719572 C17.1837911,23.8013323 15.5275998,26.1572802 14.177403,28.6867166 C13.1170347,30.6731929 12.2498276,32.7582329 11.5893496,34.9164589 L11.3768656,35.6385433 L8.48991286,34.822759 C9.23122998,32.1993359 10.2516741,29.6703908 11.5308501,27.2740037 C12.9962335,24.5287786 14.7933137,21.9724149 16.8778506,19.6622124 C18.3391984,18.0426635 19.9365381,16.5499754 21.651289,15.2018164 C23.189336,13.9925842 24.8180054,12.902638 26.522937,11.9426838 C27.4457808,11.4230807 28.3901005,10.9420502 29.3535994,10.5010142 C30.2886126,10.0730173 31.2410272,9.6829862 32.2087784,9.33201759 L32.9374351,9.07613249 Z" id="Oval" fill="#CE161D" fill-rule="nonzero"></path>
                        <polygon id="Line" fill="#005AA0" fill-rule="nonzero" points="65.1021957 30.8786854 67.2185708 33.0049394 39.6822435 60.4133294 23.5454235 44.549448 25.6485743 42.4101124 39.669 56.193"></polygon>
                    </g>
                </g>
            </g>
        </g>
    </g>
</svg>