<?xml version="1.0" encoding="UTF-8"?>
<svg width="70px" height="70px" viewBox="0 0 70 70" version="1.1" xmlns="http://www.w3.org/2000/svg" xmlns:xlink="http://www.w3.org/1999/xlink">
    <!-- Generator: Sketch 64 (93537) - https://sketch.com -->
    <title>icon/globe_black</title>
    <desc>Created with Sketch.</desc>
    <defs>
        <path d="M25,44 L25.0010194,49.0228538 C30.005341,49.2529412 34,51.2012764 34,54 L14,54 C14,51.20109 17.995191,49.2526817 22.9999803,49.0228079 L23,44 L25,44 Z M24,51 C21.7102519,51 19.6709856,51.4088923 18.2244539,52.0003538 L29.7755461,52.0003538 C28.3290144,51.4088923 26.2897481,51 24,51 Z M24.5,0 C35.2695526,0 44,8.73044738 44,19.5 C44,24.7792914 41.902063,29.5685834 38.4944084,33.0796565 L44.2263092,38.8120956 L42.8120956,40.2263092 L40.5780091,37.9929675 C36.1602392,41.8285896 30.4476385,44 24.3855527,44 C10.9232509,44 0,33.3439578 0,20.1865135 C0,14.0720811 2.37186712,8.32378934 6.54063418,3.95632343 L4.29289322,1.70710678 L5.70710678,0.292893219 L10.9203435,5.50559159 C14.4314166,2.09793702 19.2207086,0 24.5,0 Z M2,20.1865135 C2,32.2281505 12.0168863,42 24.3855527,42 C29.9127484,42 35.1178652,40.0400102 39.1601408,36.5747754 L37.0288354,34.4430935 C33.6402334,37.2872142 29.270138,39 24.5,39 C13.7304474,39 5,30.2695526 5,19.5 C5,14.729862 6.71278582,10.3597666 9.55690653,6.97116464 L7.9558372,5.37035144 C4.15665802,9.36700149 2,14.6096772 2,20.1865135 Z M24.5,2 C14.8350169,2 7,9.83501688 7,19.5 C7,29.1649831 14.8350169,37 24.5,37 C34.1649831,37 42,29.1649831 42,19.5 C42,9.83501688 34.1649831,2 24.5,2 Z" id="path-1"></path>
    </defs>
    <g id="icon/globe_black" stroke="none" stroke-width="1" fill="none" fill-rule="evenodd">
        <g id="Icons/40px/wristwatch-40">
            <g id="Icons/70px/globe-70">
                <rect id="invisible-70" x="0" y="0" width="70" height="70"></rect>
                <g id="outlines" transform="translate(11.000000, 10.000000)">
                    <mask id="mask-2" fill="white">
                        <use xlink:href="#path-1"></use>
                    </mask>
                    <use id="Combined-Shape" fill="#222222" xlink:href="#path-1"></use>
                </g>
            </g>
        </g>
    </g>
</svg>