<?xml version="1.0" encoding="UTF-8"?>
<svg width="240px" height="120px" viewBox="0 0 240 120" version="1.1" xmlns="http://www.w3.org/2000/svg" xmlns:xlink="http://www.w3.org/1999/xlink">
    <!-- Generator: Sketch 61 (89581) - https://sketch.com -->
    <title>graphs and charts</title>
    <desc>Created with Sketch.</desc>
    <g id="Gladdesign" stroke="none" stroke-width="1" fill="none" fill-rule="evenodd">
        <g id="sidlayout-Component-landing-page-data" transform="translate(-426.000000, -641.000000)">
            <g id="graphs-and-charts" transform="translate(426.000000, 641.000000)">
                <g id="Group">
                    <g id="Organisms/Callout/Smaller-Copy-2">
                        <rect id="Background" stroke="#F3F3F3" stroke-width="2" fill="#FFFFFF" x="1" y="1" width="238" height="118"></rect>
                        <g id="Group-3" transform="translate(36.000000, 21.000000)">
                            <rect id="Rectangle-Copy" fill="#F3F3F3" x="0" y="23" width="163" height="2"></rect>
                            <rect id="Rectangle-Copy-6" fill="#F3F3F3" x="0" y="0" width="163" height="2"></rect>
                            <rect id="Rectangle-Copy-3" fill="#F3F3F3" x="0" y="45" width="163" height="2"></rect>
                            <rect id="Rectangle-Copy-4" fill="#F3F3F3" x="0" y="68" width="163" height="2"></rect>
                            <rect id="Rectangle-Copy-5" fill="#F3F3F3" x="0" y="2" width="2" height="66"></rect>
                            <polyline id="Path" stroke="#005AA0" stroke-width="3" stroke-linecap="round" stroke-linejoin="round" points="1 69 34.1280899 34.5466667 66.3460674 57.2133333 98.5640449 33.64 130.782022 46.3333333 163 1"></polyline>
                            <polygon id="Rectangle-Copy-10" fill="#005AA0" points="120 78 124 78 124 80 124 82 120 82"></polygon>
                            <polygon id="Rectangle-Copy-10" fill="#DCDDDE" points="128 79 163 79 163 80 163 81 128 81"></polygon>
                        </g>
                    </g>
                </g>
            </g>
        </g>
    </g>
</svg>