<svg width="52" height="52" xmlns="http://www.w3.org/2000/svg" xmlns:xlink="http://www.w3.org/1999/xlink"><defs><path d="M26 0c14.36 0 26 11.64 26 26S40.36 52 26 52 0 40.36 0 26 11.64 0 26 0zm0 2c-.185 0-.37.002-.555.006v3.717l-7.374 2.945-1.798 2.816.944 1.626 3.35-1.411h5.253v2h-4.848l-4.601 1.938-2.44-4.203 2.8-4.385 6.714-2.68V2.133a23.927 23.927 0 00-14.45 6.93L10.71 14.7l-3.487 7.723-5.1 1.148a24.284 24.284 0 00.011 4.975l2.735-.92 4.143 2.44 4.216 1.925v4.184l-1.75 3.848v5.086A23.895 23.895 0 0026 50c13.255 0 24-10.745 24-24 0-.162-.002-.324-.005-.486l-.139.12-6.005-6.928-1.113.398-.664 1.646-4.563 1.762-3.052-6.091-5.2-2.596.893-1.79 5.797 2.894 2.536 5.063 2.059-.795.675-1.675 3.248-1.159 5.271 6.08C48.02 10.875 38.046 2 26 2zm1.935 14.568l4.624 2.242 2.86 6.424 4.738 1.94-4.488 5.563v4.582l-2.99 2.829-.923 3.208-5.83 2.13-2.932-8.599 1.016-2.949-2.016-2.568v-1.322l-1.408.364h-4.817l-2.742-8.692 2.581-1.994 2.47-2.683 1.471 1.354-2.526 2.746-.125.114-1.544 1.192 1.881 5.963h3.096l3.663-.948v3.214l2.262 2.882-1.148 3.33 2.051 6.017 2.956-1.081.794-2.756 2.76-2.612v-4.427l3.246-4.024-2.996-1.226-2.89-6.49-2.926-1.42-1.587 1.078-3.839-1.28.633-1.898 2.9.968 1.725-1.171zM4.64 29.813l-2.208.743a23.958 23.958 0 007.045 12.85V39.59l1.75-3.848v-2.466l-3.094-1.413-.092-.048-3.401-2.002zm34.76 4.07v4.104l-1.636 3.463-1.637-1.276.917-2.824 2.356-3.467zM2.43 21.453l3.38-.762 2.767-6.129-1.146-3.768a23.905 23.905 0 00-5 10.659z" id="a"/></defs><g fill="none" fill-rule="evenodd"><path d="M-9-9h70v70H-9z"/><use fill="#747578" xlink:href="#a"/></g></svg>