<?xml version="1.0" encoding="UTF-8"?>
<svg width="237px" height="117px" viewBox="0 0 237 117" version="1.1" xmlns="http://www.w3.org/2000/svg" xmlns:xlink="http://www.w3.org/1999/xlink">
    <!-- Generator: Sketch 64 (93537) - https://sketch.com -->
    <title>component/illustration</title>
    <desc>Created with Sketch.</desc>
    <g id="-designsssssssss" stroke="none" stroke-width="1" fill="none" fill-rule="evenodd">
        <g id="sidlayout-graphic" transform="translate(-451.000000, -394.000000)">
            <g id="Group" transform="translate(450.000000, 392.000000)">
                <g id="component/illustration" transform="translate(0.000000, 1.000000)">
                    <g id="geography/forrest" transform="translate(1.000000, 1.000000)">
                        <g id="outlines" fill-rule="nonzero">
                            <g id="Group-3" transform="translate(1.000000, 52.000000)" fill="#005AA0">
                                <polygon id="Stroke-1" points="30.4966461 40.5760332 32.2428503 38.136613 16.1735992 26.6338 0.000128031101 38.2417011 1.74936833 40.6789451 16.1758971 30.3248462"></polygon>
                                <polygon id="Stroke-2" points="28.4433542 61.867839 30.1895422 59.4284072 16.1652506 49.389574 2.05377195 59.5185414 3.8031244 61.9557049 16.1676458 53.0806722"></polygon>
                                <polygon id="Stroke-3" points="1.74949636 47.7120532 9.39849636 42.2210532 7.649 39.783993 0 45.274993"></polygon>
                                <polygon id="Stroke-4" points="32.2445964 45.274993 24.5955964 39.783993 22.8461 42.2210532 30.4951 47.7120532"></polygon>
                                <polygon id="Stroke-5" points="1.74939122 54.7047287 9.39839122 49.2147287 7.64910514 46.7775175 0.000105138544 52.2675175"></polygon>
                                <polygon id="Stroke-6" points="32.2444912 52.2675175 24.5954912 46.7775175 22.8462051 49.2147287 30.4952051 54.7047287"></polygon>
                                <polygon id="Stroke-7" points="14.6227482 52.0374231 14.6227482 64.7944231 17.6227482 64.7944231 17.6227482 52.0374231"></polygon>
                                <g id="Group-5" transform="translate(32.000000, 0.000000)">
                                    <polygon id="Stroke-8" points="30.4965706 13.9422332 32.2427748 11.502813 16.1735237 -8.91731133e-13 5.25669693e-05 11.6079011 1.74929286 14.0451451 16.1758217 3.69104624"></polygon>
                                    <polygon id="Stroke-10" points="28.4442787 35.234039 30.1904667 32.7946072 16.1662081 22.7557977 2.05374009 32.8847101 3.80300533 35.3219362 16.1685373 26.4468486"></polygon>
                                    <polygon id="Stroke-11" points="1.74934543 21.0783074 9.39934543 15.5873074 7.65 13.1501388 7.99360578e-13 18.6411388"></polygon>
                                    <polygon id="Stroke-12" points="32.2445209 18.641193 24.5955209 13.150193 22.8460245 15.5872532 30.4950245 21.0782532"></polygon>
                                    <polygon id="Stroke-13" points="1.74924029 28.0710829 9.39924029 22.5810829 7.65010514 20.1437634 0.000105138817 25.6337634"></polygon>
                                    <polygon id="Stroke-14" points="32.2444158 25.6338175 24.5954158 20.1438175 22.8461297 22.5810287 30.4951297 28.0710287"></polygon>
                                    <polygon id="Stroke-15" points="14.6227727 25.4036231 14.6227727 38.1606231 17.6227727 38.1606231 17.6227727 25.4036231"></polygon>
                                </g>
                            </g>
                            <g id="Group" transform="translate(198.000000, 71.000000)" fill="#005AA0">
                                <polygon id="Stroke-16" points="30.496518 13.9422332 32.2427223 11.502813 16.1734712 -9.02389274e-13 1.75859327e-12 11.6079011 1.7492403 14.0451451 16.1757691 3.69104624"></polygon>
                                <polygon id="Stroke-18" points="28.4442875 35.2330829 30.1903528 32.7935633 16.1661092 22.7558309 2.05368753 32.8847101 3.80295277 35.3219362 16.1685311 26.4468153"></polygon>
                                <polygon id="Stroke-19" points="1.74918772 21.0778829 9.39918772 15.5878829 7.65005257 13.1505634 5.25718531e-05 18.6405634"></polygon>
                                <polygon id="Stroke-20" points="32.2444632 18.6406175 24.5954632 13.1506175 22.8461771 15.5878287 30.4951771 21.0778287"></polygon>
                                <polygon id="Stroke-22" points="1.74918772 28.0709829 9.39918772 22.5809829 7.65005257 20.1436634 5.25718531e-05 25.6336634"></polygon>
                                <polygon id="Stroke-23" points="32.2444632 25.6337175 24.5954632 20.1437175 22.8461771 22.5809287 30.4951771 28.0709287"></polygon>
                                <polygon id="Stroke-25" points="14.6227201 25.4036231 14.6227201 38.1606231 17.6227201 38.1606231 17.6227201 25.4036231"></polygon>
                            </g>
                            <g id="Group-4" fill="#005AA0">
                                <path d="M21.7812646,28.773361 C23.5462845,29.4879899 25.4392091,29.86 27.3812,29.86 C35.6266271,29.86 42.3112,23.1754271 42.3112,14.93 C42.3112,6.68457288 35.6266271,2.91322522e-13 27.3812,2.91322522e-13 C19.8148953,2.91322522e-13 13.4693316,5.65887954 12.562201,13.1076662 L15.540199,13.4703338 C16.2645249,7.5226241 21.3359528,3 27.3812,3 C33.9697729,3 39.3112,8.34142712 39.3112,14.93 C39.3112,21.5185729 33.9697729,26.86 27.3812,26.86 C25.8268548,26.86 24.3160509,26.5630868 22.9071354,25.992639 L21.7812646,28.773361 Z" id="Stroke-45"></path>
                                <path d="M24.314,24.2516 C24.314,27.0506229 23.364015,29.7069691 21.6495062,31.848638 C19.3571138,34.7091399 15.8952166,36.4086 12.157,36.4086 C5.44257288,36.4086 -7.51398943e-13,30.9660271 -7.51398943e-13,24.2516 C-7.51398943e-13,17.5371729 5.44257288,12.0946 12.157,12.0946 C18.8714271,12.0946 24.314,17.5371729 24.314,24.2516 Z M21.314,24.2516 C21.314,19.1940271 17.2145729,15.0946 12.157,15.0946 C7.09942712,15.0946 3,19.1940271 3,24.2516 C3,29.3091729 7.09942712,33.4086 12.157,33.4086 C14.9749374,33.4086 17.5795432,32.1299879 19.3080098,29.9731662 C20.5999363,28.3593635 21.314,26.3626999 21.314,24.2516 Z" id="Stroke-55"></path>
                                <polygon id="Stroke-43" points="25.8813 28.3596 25.8813 56.6426 28.8813 56.6426 28.8813 28.3596"></polygon>
                                <polygon id="Stroke-47" points="34.6104475 32.7602402 26.5014475 38.6372402 28.2619525 41.0663598 36.3709525 35.1893598"></polygon>
                                <polygon id="Stroke-53" points="10.6567 34.9089 10.6567 65.4799 13.6567 65.4799 13.6567 34.9089"></polygon>
                                <polygon id="Stroke-57" points="4.84191876 44.365639 11.2769188 49.029639 13.0374812 46.600561 6.60248124 41.936561"></polygon>
                            </g>
                            <g id="Group-2" transform="translate(55.000000, 97.000000)">
                                <path d="M108.8037,13.961 C108.8037,7.90742712 113.711127,3 119.7647,3 C125.818273,3 130.7257,7.90742712 130.7257,13.961 L133.7257,13.961 C133.7257,6.25057288 127.475127,0 119.7647,0 C112.054273,0 105.8037,6.25057288 105.8037,13.961 L108.8037,13.961 Z" id="Stroke-39" fill="#005AA0"></path>
                                <path d="M129.1904,19.9547 C129.1904,17.0151271 131.573827,14.6317 134.5134,14.6317 C137.452973,14.6317 139.8364,17.0151271 139.8364,19.9547 L142.8364,19.9547 C142.8364,15.3582729 139.109827,11.6317 134.5134,11.6317 C129.916973,11.6317 126.1904,15.3582729 126.1904,19.9547 L129.1904,19.9547 Z" id="Stroke-41" fill="#005AA0"></path>
                                <path d="M3,9.323 C3,6.38342712 5.38342712,4 8.323,4 C11.2625729,4 13.646,6.38342712 13.646,9.323 L16.646,9.323 C16.646,4.72657288 12.9194271,1 8.323,1 C3.72657288,1 0,4.72657288 0,9.323 L3,9.323 Z" id="Stroke-41-Copy" fill="#005AA0"></path>
                                <polygon id="Stroke-49" fill="#E30613" points="100 15.9356 119.785 15.9356 119.785 12.9356 100 12.9356"></polygon>
                            </g>
                        </g>
                        <g id="outlines" transform="translate(72.000000, 4.000000)" fill-rule="nonzero">
                            <polygon id="Stroke-1" fill="#005AA0" points="151.3386 36.3841 151.3386 56.0421 154.3386 56.0421 154.3386 36.3841"></polygon>
                            <path d="M164.1677,26.5555 C164.1677,29.1632944 163.281648,31.6398112 161.684088,33.634685 C159.547257,36.3003879 156.320957,37.8845 152.8387,37.8845 C146.581595,37.8845 141.5097,32.8122489 141.5097,26.5555 C141.5097,20.2987511 146.581595,15.2265 152.8387,15.2265 C159.095127,15.2265 164.1677,20.2990729 164.1677,26.5555 Z M161.1677,26.5555 C161.1677,21.9559271 157.438273,18.2265 152.8387,18.2265 C148.238496,18.2265 144.5097,21.9555581 144.5097,26.5555 C144.5097,31.1554419 148.238496,34.8845 152.8387,34.8845 C155.40065,34.8845 157.769835,33.7212312 159.342872,31.7588633 C160.517723,30.2918265 161.1677,28.4751392 161.1677,26.5555 Z" id="Stroke-2" fill="#005AA0"></path>
                            <polygon id="Stroke-4" fill="#005AA0" points="77.9392 31.1224 134.7852 31.1224 134.7852 28.1224 77.9392 28.1224"></polygon>
                            <polygon id="Stroke-6" fill="#005AA0" points="90.5455203 18.227 121.95988 18.227 133.2852 29.5523203 133.2852 46.511 136.2852 46.511 136.2852 28.3096797 123.20252 15.227 89.3028797 15.227 76.4392 28.0906797 76.4392 46.511 79.4392 46.511 79.4392 29.3333203"></polygon>
                            <polygon id="Stroke-8" fill="#005AA0" points="88.8638398 17.7875602 101.84784 30.7715602 103.96916 28.6502398 90.9851602 15.6662398"></polygon>
                            <polygon id="Stroke-10" fill="#005AA0" points="69.5224497 9.26184719 71.2685503 6.82235281 60.3392327 -1.00045164 49.3437754 6.89255298 51.0932246 9.32964702 60.3417673 2.69065164"></polygon>
                            <polygon id="Stroke-12" fill="#005AA0" points="69.5223695 26.4087898 71.2686305 23.9694102 60.3392933 16.1455048 49.3437754 24.038553 51.0932246 26.475647 60.3417067 19.8366952"></polygon>
                            <polygon id="Stroke-14" fill="#005AA0" points="51.0931106 17.4713289 56.1551106 13.8383289 54.4058894 11.4010711 49.3438894 15.0340711"></polygon>
                            <polygon id="Stroke-16" fill="#005AA0" points="71.2698106 15.0340711 66.2078106 11.4010711 64.4585894 13.8383289 69.5205894 17.4713289"></polygon>
                            <polygon id="Stroke-18" fill="#005AA0" points="58.8064 19.0955 58.8064 27.9695 61.8064 27.9695 61.8064 19.0955"></polygon>
                            <polygon id="Stroke-20" fill="#E30613" points="30.5486807 2.69065188 39.7283923 9.26180609 41.4746077 6.82239391 30.5463193 -1.00045188 19.5498324 6.89251205 21.2991676 9.32968795"></polygon>
                            <polygon id="Stroke-22" fill="#005AA0" points="30.54862 19.8366954 39.7283121 26.4087487 41.4746879 23.9694513 30.54638 16.1455046 19.5498324 24.038512 21.2991676 26.475688"></polygon>
                            <polygon id="Stroke-24" fill="#005AA0" points="21.2991106 17.4713289 26.3611106 13.8383289 24.6118894 11.4010711 19.5498894 15.0340711"></polygon>
                            <polygon id="Stroke-26" fill="#005AA0" points="41.4759106 15.0340711 36.4139106 11.4010711 34.6646894 13.8383289 39.7266894 17.4713289"></polygon>
                            <polygon id="Stroke-28" fill="#005AA0" points="29.0134 19.0955 29.0134 27.9695 32.0134 27.9695 32.0134 19.0955"></polygon>
                            <path d="M5.8864,68.4442 C5.8864,73.4809421 9.96928779,77.5642 15.0064,77.5642 C20.0428271,77.5642 24.1264,73.4806271 24.1264,68.4442 C24.1264,63.4077729 20.0428271,59.3242 15.0064,59.3242 C9.96928779,59.3242 5.8864,63.4074579 5.8864,68.4442 Z M8.8864,68.4442 C8.8864,65.0642513 11.6262029,62.3242 15.0064,62.3242 C18.3859729,62.3242 21.1264,65.0646271 21.1264,68.4442 C21.1264,71.8237729 18.3859729,74.5642 15.0064,74.5642 C11.6262029,74.5642 8.8864,71.8241487 8.8864,68.4442 Z" id="Stroke-30" fill="#005AA0"></path>
                            <path d="M15.0062,55.2922 C7.74277288,55.2922 1.8542,61.1807729 1.8542,68.4442 L4.8542,68.4442 C4.8542,62.8376271 9.39962712,58.2922 15.0062,58.2922 C20.6127729,58.2922 25.1582,62.8376271 25.1582,68.4442 L25.1582,69.9442 L34.9892,69.9442 L34.9892,66.9442 L28.073591,66.9442 C27.3290786,60.3870712 21.7624104,55.2922 15.0062,55.2922 Z" id="Stroke-32" fill="#005AA0"></path>
                            <path d="M33.489,70.6463 C33.489,74.4667271 36.5865729,77.5643 40.407,77.5643 C44.2274271,77.5643 47.325,74.4667271 47.325,70.6463 C47.325,66.8251754 44.2277297,63.7283 40.407,63.7283 C36.5862703,63.7283 33.489,66.8251754 33.489,70.6463 Z M36.489,70.6463 C36.489,68.4821153 38.2430389,66.7283 40.407,66.7283 C42.5709611,66.7283 44.325,68.4821153 44.325,70.6463 C44.325,72.8098729 42.5705729,74.5643 40.407,74.5643 C38.2434271,74.5643 36.489,72.8098729 36.489,70.6463 Z" id="Stroke-34" fill="#005AA0"></path>
                            <polygon id="Stroke-36" fill="#005AA0" points="44.9235 54.4618 32.8685584 54.4618 27.3315584 42.1208 6.7695 42.1208 6.7695 58.9378 9.7695 58.9378 9.7695 45.1208 25.3894416 45.1208 30.9264416 57.4618 41.9235 57.4618 41.9235 66.1448 44.9235 66.1448"></polygon>
                            <path d="M5.2751,34.5526 C6.10025007,34.5526 6.7691,35.2216043 6.7691,36.0466 L6.7691,48.6706 L9.7691,48.6706 L9.7691,36.0466 C9.7691,33.5649049 7.75725927,31.5526 5.2751,31.5526 L5.2751,34.5526 Z" id="Stroke-38" fill="#005AA0"></path>
                            <polygon id="Stroke-40" fill="#005AA0" points="17.6716 44.2405 17.6716 53.2725 20.6716 53.2725 20.6716 44.2405"></polygon>
                            <polygon id="Stroke-42" fill="#005AA0" points="32.5182032 79.6833543 28.7932032 87.4533543 31.4983968 88.7502457 35.2233968 80.9802457"></polygon>
                            <polygon id="Stroke-44" fill="#005AA0" points="25.0700032 79.6833543 21.3450032 87.4533543 24.0501968 88.7502457 27.7751968 80.9802457"></polygon>
                            <polygon id="Stroke-46" fill="#005AA0" points="17.6206353 79.6834958 13.8966353 87.4534958 16.6019647 88.7501042 20.3259647 80.9801042"></polygon>
                            <polygon id="Stroke-48" fill="#005AA0" points="10.1724353 79.6834958 6.44843532 87.4534958 9.15376468 88.7501042 12.8777647 80.9801042"></polygon>
                            <polygon id="Stroke-50" fill="#005AA0" points="2.72420318 79.6833543 -1.00079682 87.4533543 1.70439682 88.7502457 5.42939682 80.9802457"></polygon>
                            <polygon id="Stroke-52" fill="#005AA0" points="99.5543032 79.6833543 95.8293032 87.4533543 98.5344968 88.7502457 102.259497 80.9802457"></polygon>
                            <polygon id="Stroke-54" fill="#005AA0" points="92.1061032 79.6833543 88.3811032 87.4533543 91.0862968 88.7502457 94.8112968 80.9802457"></polygon>
                            <polygon id="Stroke-56" fill="#005AA0" points="84.6579032 79.6833543 80.9329032 87.4533543 83.6380968 88.7502457 87.3630968 80.9802457"></polygon>
                            <polygon id="Stroke-58" fill="#005AA0" points="77.2085353 79.6834958 73.4845353 87.4534958 76.1898647 88.7501042 79.9138647 80.9801042"></polygon>
                            <polygon id="Stroke-60" fill="#005AA0" points="69.7604032 79.6833543 66.0354032 87.4533543 68.7405968 88.7502457 72.4655968 80.9802457"></polygon>
                            <polygon id="Stroke-62" fill="#005AA0" points="62.3121032 79.6833543 58.5871032 87.4533543 61.2922968 88.7502457 65.0172968 80.9802457"></polygon>
                            <polygon id="Stroke-64" fill="#005AA0" points="54.8639032 79.6833543 51.1389032 87.4533543 53.8440968 88.7502457 57.5690968 80.9802457"></polygon>
                            <polygon id="Stroke-66" fill="#005AA0" points="47.4146353 79.6834958 43.6906353 87.4534958 46.3959647 88.7501042 50.1199647 80.9801042"></polygon>
                            <polygon id="Stroke-68" fill="#005AA0" points="39.9663353 79.6834958 36.2423353 87.4534958 38.9476647 88.7501042 42.6716647 80.9801042"></polygon>
                            <polygon id="Stroke-70" fill="#005AA0" points="99.5543032 68.2273543 95.8293032 75.9973543 98.5344968 77.2942457 102.259497 69.5242457"></polygon>
                            <polygon id="Stroke-72" fill="#005AA0" points="92.1061032 68.2273543 88.3811032 75.9973543 91.0862968 77.2942457 94.8112968 69.5242457"></polygon>
                            <polygon id="Stroke-74" fill="#005AA0" points="84.6579032 68.2273543 80.9329032 75.9973543 83.6380968 77.2942457 87.3630968 69.5242457"></polygon>
                            <polygon id="Stroke-76" fill="#005AA0" points="77.2085353 68.2274958 73.4845353 75.9974958 76.1898647 77.2941042 79.9138647 69.5241042"></polygon>
                            <polygon id="Stroke-78" fill="#005AA0" points="69.7604032 68.2273543 66.0354032 75.9973543 68.7405968 77.2942457 72.4655968 69.5242457"></polygon>
                            <polygon id="Stroke-80" fill="#E30613" points="62.3121032 68.2273543 58.5871032 75.9973543 61.2922968 77.2942457 65.0172968 69.5242457"></polygon>
                            <polygon id="Stroke-82" fill="#005AA0" points="54.8639032 68.2273543 51.1389032 75.9973543 53.8440968 77.2942457 57.5690968 69.5242457"></polygon>
                            <polygon id="Stroke-84" fill="#005AA0" points="99.5543032 56.7708543 95.8293032 64.5408543 98.5344968 65.8377457 102.259497 58.0677457"></polygon>
                            <polygon id="Stroke-86" fill="#005AA0" points="92.1061032 56.7708543 88.3811032 64.5408543 91.0862968 65.8377457 94.8112968 58.0677457"></polygon>
                            <polygon id="Stroke-88" fill="#E30613" points="84.6579032 56.7708543 80.9329032 64.5408543 83.6380968 65.8377457 87.3630968 58.0677457"></polygon>
                            <polygon id="Stroke-90" fill="#E30613" points="77.2085353 56.7709958 73.4845353 64.5409958 76.1898647 65.8376042 79.9138647 58.0676042"></polygon>
                            <polygon id="Stroke-92" fill="#005AA0" points="69.7604032 56.7708543 66.0354032 64.5408543 68.7405968 65.8377457 72.4655968 58.0677457"></polygon>
                            <polygon id="Stroke-94" fill="#005AA0" points="62.3121032 56.7708543 58.5871032 64.5408543 61.2922968 65.8377457 65.0172968 58.0677457"></polygon>
                            <polygon id="Stroke-96" fill="#005AA0" points="54.8639032 56.7708543 51.1389032 64.5408543 53.8440968 65.8377457 57.5690968 58.0677457"></polygon>
                            <polygon id="Stroke-98" fill="#005AA0" points="36.1247 48.011 122.9997 48.011 122.9997 45.011 36.1247 45.011"></polygon>
                            <polygon id="Stroke-100" fill="#005AA0" points="46.2565 34.2537 46.2565 45.8087 49.2565 45.8087 49.2565 34.2537"></polygon>
                            <polygon id="Stroke-102" fill="#005AA0" points="63.5642 34.2537 63.5642 45.8087 66.5642 45.8087 66.5642 34.2537"></polygon>
                            <polygon id="Stroke-104" fill="#005AA0" points="78.7185 36.595 41.2965 36.595 41.2965 39.595 78.7185 39.595"></polygon>
                            <polygon id="Stroke-106" fill="#005AA0" points="118.8708 48.011 160.3928 48.011 160.3928 45.011 118.8708 45.011"></polygon>
                        </g>
                    </g>
                </g>
            </g>
        </g>
    </g>
</svg>