<?xml version="1.0" encoding="UTF-8"?>
<svg width="240px" height="120px" viewBox="0 0 240 120" version="1.1" xmlns="http://www.w3.org/2000/svg" xmlns:xlink="http://www.w3.org/1999/xlink">
    <!-- Generator: Sketch 61 (89581) - https://sketch.com -->
    <title>popover tooltip</title>
    <desc>Created with Sketch.</desc>
    <defs>
        <polygon id="path-1" points="0.883817427 14 66.8838174 14 66.8838174 16 0.883817427 16"></polygon>
        <mask id="mask-2" maskContentUnits="userSpaceOnUse" maskUnits="objectBoundingBox" x="0" y="0" width="66" height="2" fill="white">
            <use xlink:href="#path-1"></use>
        </mask>
    </defs>
    <g id="Gladdesign" stroke="none" stroke-width="1" fill="none" fill-rule="evenodd">
        <g id="sidlayout-Component-landing-micro-interactions" transform="translate(-427.000000, -824.000000)">
            <g id="popover-tooltip" transform="translate(427.000000, 824.000000)">
                <g id="Group">
                    <g id="Organisms/Callout/Smaller-Copy-2">
                        <rect id="Background" stroke="#F3F3F3" stroke-width="2" fill="#F3F3F3" x="1" y="1" width="238" height="118"></rect>
                        <g id="Group-3" transform="translate(26.000000, 26.000000)">
                            <g id="Group-5" transform="translate(0.116183, 0.000000)">
                                <polygon id="Rectangle-Copy-7" fill="#D5D5D5" points="0.883817427 0 50.8838174 0 50.8838174 2 0.883817427 2"></polygon>
                                <polygon id="Rectangle-Copy-7" fill="#D5D5D5" points="0.883817427 70 50.8838174 70 50.8838174 72 0.883817427 72"></polygon>
                                <polygon id="Rectangle-Copy-7" fill="#D5D5D5" points="0.883817427 10 66.8838174 10 66.8838174 12 0.883817427 12"></polygon>
                                <use id="Rectangle-Copy-7" stroke="#D5D5D5" mask="url(#mask-2)" stroke-width="2" stroke-dasharray="2,2" xlink:href="#path-1"></use>
                                <polygon id="Rectangle-Copy-7" fill="#D5D5D5" points="0.883817427 20 66.8838174 20 66.8838174 22 0.883817427 22"></polygon>
                                <polygon id="Rectangle-Copy-7" fill="#D5D5D5" points="0.883817427 30 66.8838174 30 66.8838174 32 0.883817427 32"></polygon>
                                <polygon id="Rectangle-Copy-7" fill="#D5D5D5" points="0.883817427 40 66.8838174 40 66.8838174 42 0.883817427 42"></polygon>
                                <polygon id="Rectangle-Copy-7" fill="#D5D5D5" points="0.883817427 50 66.8838174 50 66.8838174 52 0.883817427 52"></polygon>
                                <polygon id="Rectangle-Copy-7" fill="#D5D5D5" points="0.883817427 60 66.8838174 60 66.8838174 62 0.883817427 62"></polygon>
                            </g>
                            <polygon id="Rectangle-Copy" fill="#FFFFFF" points="70 6 188 6 188 62 70 62"></polygon>
                            <polygon id="Rectangle-Copy-7" fill="#D5D5D5" points="80 30 174 30 174 32 80 32"></polygon>
                            <polygon id="Rectangle-Copy-7" fill="#D5D5D5" points="80 40 174 40 174 42 80 42"></polygon>
                            <polygon id="Rectangle-Copy-7" fill="#D5D5D5" points="80 50 153 50 153 52 80 52"></polygon>
                            <polygon id="Rectangle-Copy-8" fill="#D5D5D5" points="80 13 120 13 120 17 80 17"></polygon>
                            <rect id="Rectangle" fill="#005AA0" x="70" y="6" width="2" height="56"></rect>
                        </g>
                    </g>
                </g>
            </g>
        </g>
    </g>
</svg>