<?xml version="1.0" encoding="UTF-8"?>
<svg width="240px" height="120px" viewBox="0 0 240 120" version="1.1" xmlns="http://www.w3.org/2000/svg" xmlns:xlink="http://www.w3.org/1999/xlink">
    <!-- Generator: Sketch 61 (89581) - https://sketch.com -->
    <title>tables</title>
    <desc>Created with Sketch.</desc>
    <g id="Gladdesign" stroke="none" stroke-width="1" fill="none" fill-rule="evenodd">
        <g id="sidlayout-Component-landing-page-navigations-Copy" transform="translate(-1111.000000, -767.000000)">
            <g id="tables" transform="translate(1111.000000, 767.000000)">
                <rect id="Background" stroke="#F3F3F3" stroke-width="2" fill="#F3F3F3" x="1" y="1" width="238" height="118"></rect>
                <g id="Group" transform="translate(28.000000, 21.000000)">
                    <polygon id="Rectangle-Copy" fill="#FFFFFF" points="2.30614434e-11 0 187 0 187 80 2.30614434e-11 80"></polygon>
                    <polygon id="Rectangle-Copy-7" fill="#747578" points="10 28 31 28 31 30 10 30"></polygon>
                    <polygon id="Rectangle-Copy-7" fill="#D5D5D5" points="10 38 46 38 46 40 10 40"></polygon>
                    <polygon id="Rectangle-Copy-7" fill="#D5D5D5" points="10 48 41 48 41 50 10 50"></polygon>
                    <polygon id="Rectangle-Copy-7" fill="#D5D5D5" points="10 58 44 58 44 60 10 60"></polygon>
                    <polygon id="Rectangle-Copy-7" fill="#747578" points="60 28 88 28 88 30 60 30"></polygon>
                    <polygon id="Rectangle-Copy-7" fill="#D5D5D5" points="60 38 127 38 127 40 60 40"></polygon>
                    <polygon id="Rectangle-Copy-7" fill="#D5D5D5" points="60 48 109 48 109 50 60 50"></polygon>
                    <polygon id="Rectangle-Copy-7" fill="#D5D5D5" points="60 58 118 58 118 60 60 60"></polygon>
                    <polygon id="Rectangle-Copy-7" fill="#747578" points="161 28 174 28 174 30 161 30"></polygon>
                    <polygon id="Rectangle-Copy-7" fill="#747578" points="10 68 31 68 31 70 10 70"></polygon>
                    <polygon id="Rectangle-Copy-7" fill="#747578" points="145 68 174 68 174 70 145 70"></polygon>
                    <polygon id="Rectangle-Copy-7" fill="#D5D5D5" points="154 38 174 38 174 40 154 40"></polygon>
                    <polygon id="Rectangle-Copy-7" fill="#D5D5D5" points="157 48 174 48 174 50 157 50"></polygon>
                    <polygon id="Rectangle-Copy-7" fill="#D5D5D5" points="154 58 174 58 174 60 154 60"></polygon>
                    <polygon id="Rectangle-Copy-8" fill="#005AA0" points="10 7 78 7 78 11 10 11"></polygon>
                    <rect id="Rectangle" fill="#005AA0" x="0" y="17" width="187" height="2"></rect>
                </g>
            </g>
        </g>
    </g>
</svg>